<svg width="47" height="82" viewBox="0 0 47 82" fill="none" xmlns="http://www.w3.org/2000/svg">
<path d="M4.95737 71.0064C3.23302 69.2307 2.22454 62.0046 3.90244 60.5977H12.4556C14.1365 62.0054 13.125 69.2278 11.4007 71.0041L11.3542 71.0534L11.2938 71.1138C11.2444 71.1631 11.192 71.2094 11.1382 71.2528L11.0969 71.2852C11.0556 71.3176 11.0151 71.3507 10.9686 71.3831C10.8979 71.4368 10.8227 71.4846 10.7445 71.5273C9.32611 72.3456 7.02822 72.3456 5.60981 71.5273C5.53609 71.4839 5.45942 71.4346 5.3857 71.3831C5.31197 71.3316 5.30387 71.3206 5.26554 71.2904L5.21392 71.2492C5.16231 71.2058 5.11 71.1616 5.06356 71.1153C5.01712 71.0689 5.02005 71.0689 4.99499 71.0468L4.95737 71.0064Z" fill="#EFC5CE"/>
<path d="M11.7123 60.0304C13.6638 61.1651 13.6638 63.0121 11.7123 64.1468C9.76093 65.2815 6.59678 65.2844 4.64536 64.1468C2.69395 63.0091 2.69174 61.168 4.64536 60.0304C6.59972 58.8935 9.76093 58.8935 11.7123 60.0304Z" fill="#E09DA7"/>
<path d="M10.7718 60.5764C12.2064 61.4109 12.2064 62.7583 10.7718 63.6016C9.33719 64.4442 7.01715 64.4361 5.57958 63.6016C4.14201 62.7671 4.14791 61.4197 5.57958 60.5764C7.01126 59.7331 9.34014 59.742 10.7718 60.5764Z" fill="#CE7C8C"/>
<path d="M5.58405 62.0106C7.01868 61.1762 9.34166 61.1762 10.7763 62.0106C11.125 62.2005 11.4213 62.4742 11.6373 62.8068C11.4206 63.138 11.125 63.411 10.7763 63.6008C9.34461 64.4353 7.02163 64.4353 5.58405 63.6008C5.23683 63.411 4.94193 63.1387 4.72592 62.8068C4.94045 62.4742 5.23535 62.1997 5.58405 62.0106Z" fill="#FBFBFB"/>
<path d="M10.6364 49.0898L8.33552 51.46L10.6695 49.9898C10.7705 50.7926 10.7292 51.6072 10.5464 52.3953C9.92126 52.8898 9.33519 53.4329 8.79481 54.0186L10.5988 53.0179C10.7897 54.0804 10.7993 55.168 10.626 56.2336C10.5553 56.7516 10.1174 57.7833 9.85567 58.5442C9.73624 58.8952 9.59246 59.2381 9.42659 59.57C9.41774 59.5913 9.40741 59.6126 9.39635 59.6325C8.92896 59.4419 8.44241 59.2587 7.94258 59.0872C7.55186 58.4846 6.94512 56.9488 6.62812 55.6692C5.42572 50.7595 8.81396 47.418 11.7245 46.0625C11.1841 46.9993 10.8163 48.0243 10.6364 49.0898Z" fill="#EFC5CE"/>
<path d="M8.51513 49.5801C8.08976 50.193 7.80961 50.8943 7.69534 51.6316C7.556 52.3616 7.49851 53.1041 7.52284 53.8466C7.55675 55.3323 7.94306 56.7886 8.64857 58.0962C8.667 58.1315 8.65372 58.1749 8.61834 58.194C8.60138 58.2036 8.58221 58.2065 8.56305 58.2014C8.54388 58.1962 8.52914 58.1837 8.51956 58.1668C7.82731 56.8334 7.46239 55.3558 7.45355 53.8547C7.44249 53.1092 7.51323 52.3646 7.66362 51.6346C7.78748 50.8936 8.0787 50.1908 8.51513 49.5801Z" fill="white"/>
<path d="M0.500086 50.9961C1.30218 52.445 2.01582 53.9403 2.63729 55.4753L5.3097 56.4025H3.21673L4.00114 58.312L6.61088 59.3489L4.42504 59.3187C4.42504 59.3187 4.6462 61.4821 6.00711 62.608C6.75833 63.2298 7.11957 63.3034 7.44763 63.1805C7.84941 63.0274 8.12513 62.466 8.42887 61.6124C8.73186 60.7588 8.7407 58.9199 8.21285 57.0434C8.06836 56.5408 7.85235 56.061 7.57074 55.6195C5.96803 53.0366 2.36377 51.2993 0.500086 50.9961Z" fill="#EA9DAA"/>
<path d="M3.21968 52.4004C4.55773 53.2599 5.70186 54.3887 6.57841 55.7147C7.01263 56.3873 7.33775 57.1239 7.54269 57.8965C7.73806 58.6677 7.80588 59.4654 7.74248 60.2586C7.73068 59.4742 7.61862 58.6934 7.40925 57.9377C7.2021 57.1827 6.89248 56.4594 6.48849 55.7883C5.64143 54.4564 4.53116 53.3114 3.22555 52.4225L3.21968 52.4004Z" fill="white"/>
<path d="M17.5919 51.9264C17.3184 51.9227 17.0442 51.936 16.7721 51.9646C15.6877 52.0912 14.6231 52.3502 13.6021 52.7365C13.2224 52.8756 12.842 53.0368 12.4683 53.2141C12.2825 53.3039 12.0967 53.3966 11.922 53.4871C11.016 53.9603 10.1947 54.5806 9.49289 55.3231C9.16704 55.6785 8.88617 56.0722 8.6569 56.4961C8.62667 56.5505 8.59641 56.6027 8.56914 56.6594C8.50058 56.8036 8.43497 56.9456 8.37526 57.0877C7.80981 58.3048 7.56433 59.6448 7.66238 60.9826C7.69481 61.9267 8.01773 63.004 8.20866 63.1813C8.23373 63.2048 8.261 63.2262 8.29049 63.2439C8.56399 63.4153 8.99011 63.3145 9.79072 62.8671C11.3979 61.9693 12.0259 59.7 12.0259 59.7L9.79587 59.321L12.6297 58.7647L13.7938 56.9508L11.6514 56.5638L14.5642 56.1163C15.4879 54.6674 16.4972 53.2745 17.5868 51.9455L17.5919 51.9264Z" fill="#ED8592"/>
<path d="M16.7611 51.9637C15.6766 52.0902 14.6121 52.3492 13.5911 52.7356C13.2114 52.8746 12.8317 53.0358 12.4572 53.2132C12.2714 53.3029 12.0857 53.3956 11.9109 53.4862C11.0049 53.9593 10.1837 54.5796 9.48183 55.3221C9.15598 55.6775 8.87508 56.0712 8.6458 56.4951C8.61558 56.5495 8.58535 56.6018 8.55808 56.6584C8.48952 56.8027 8.42391 56.9447 8.3642 57.0867C7.79875 58.3038 7.55327 59.6438 7.65132 60.9816C7.68375 61.9257 8.00667 63.003 8.19761 63.1804C8.22267 63.2039 8.24994 63.2252 8.27943 63.2429C8.33398 63.2753 8.39441 63.2974 8.45707 63.3084C8.25729 61.8433 8.97903 58.1257 10.0723 56.6062C11.2091 55.0189 13.8985 52.7164 17.6067 51.9225C17.3229 51.9188 17.0412 51.9328 16.7611 51.9637Z" fill="#ED8592"/>
<path d="M8.42764 63.3176C8.35687 62.2337 8.42765 61.1454 8.63776 60.0798C8.83312 59.007 9.19582 57.9716 9.71187 57.0113C10.2891 56.0775 11.0293 55.2556 11.8977 54.5837C12.75 53.9053 13.6892 53.3438 14.6903 52.9141C13.7371 53.4211 12.837 54.0223 12.0039 54.7088C11.5866 55.0459 11.1922 55.4108 10.8236 55.8001C10.4491 56.1835 10.1181 56.6066 9.83721 57.0628C9.31379 57.9996 8.93855 59.0121 8.72476 60.0629C8.49475 61.1189 8.4026 62.1999 8.45126 63.2786L8.42764 63.3176Z" fill="white"/>
<path d="M13.7339 8.74416C12.0228 5.35332 8.39947 3.4938 8.26972 3.82494C8.13997 4.15608 8.43486 4.49311 9.66895 6.05975C9.66895 6.05975 6.82109 6.7993 8.35154 9.06721C8.93026 9.92449 11.944 11.4404 11.944 11.4404L13.7339 8.74416Z" fill="#F4A6A8"/>
<path d="M13.4802 8.22656C13.4802 8.22656 10.9354 9.96317 11.0076 12.6991C11.0076 12.6991 17.3838 18.3372 18.9143 18.9951C21.726 20.2041 27.8258 20.118 27.8258 20.118C27.8258 20.118 31.4787 12.8911 31.0975 11.2568L20.2781 12.5519L13.4802 8.22656Z" fill="#37474F"/>
<path d="M30.5015 64.4727H31.4592C31.4592 64.4727 31.9354 64.7464 31.8985 65.5684C31.8617 66.3903 31.9995 67.5758 32.0172 68.0931C32.0349 68.6104 31.3279 69.0857 30.2604 68.9937C29.1937 68.9018 28.2184 68.8142 27.4767 69.213C26.7351 69.6119 24.9208 70.6789 23.2569 69.5832C21.593 68.4875 22.3169 67.6942 22.5212 67.7053C22.7254 67.7163 25.6101 66.9407 26.4491 66.3138C27.288 65.6868 28.629 64.5367 28.629 64.5367L30.5015 64.4727Z" fill="#263339"/>
<path d="M39.7895 66.9014C39.7895 66.9014 42.6469 66.7204 42.7524 67.4893C42.8578 68.2583 43.0664 69.9876 42.717 70.4217C42.3675 70.8559 41.3996 71.7102 41.143 72.1487C40.8865 72.5873 39.9988 74.6094 37.4783 74.9972C34.5656 75.9355 32.3473 74.101 33.7915 72.7065C34.5361 72.084 36.4963 70.7602 36.9357 69.5313C37.2262 68.7462 37.5874 67.989 38.0157 67.2693L39.7895 66.9014Z" fill="#263339"/>
<path d="M27.4696 30.8477L27.1445 48.7636L27.8154 64.65C27.8154 64.65 30.2335 65.7045 33.0135 64.65L33.576 49.013L34.7526 31.989L27.4696 30.8477Z" fill="#37474F"/>
<path d="M34.1285 40.9211L34.4949 35.6134L30.4638 35.5324C30.2972 35.3168 30.721 38.3331 34.1285 40.9211Z" fill="#263339"/>
<path d="M28.8623 32.9414C28.8623 32.9414 28.8262 37.1078 32.7497 38.8261L36.6466 68.1707C36.6466 68.1707 40.4418 69.1597 43.2277 67.7549L43.1223 55.1908C43.1097 53.6536 42.8407 52.1297 42.3253 50.6807L42.0246 32.9421H28.8623V32.9414Z" fill="#37474F"/>
<path d="M29.8506 31.0379C29.8506 31.0379 30.9483 34.3824 36.6064 33.2058V14.4473H29.8506V31.0379Z" fill="#F0F0F0"/>
<path d="M29.6594 2.0918C29.6594 2.0918 26.8985 3.31256 28.5661 6.35166L29.6594 2.0918Z" fill="#535470"/>
<path d="M31.7166 14.3672L32.0262 15.967L32.773 16.226L34.5976 14.8602L31.7166 14.3672Z" fill="#465B65"/>
<path d="M36.7259 8.5332C35.9901 10.9991 37.3142 12.1889 37.3142 12.1889C37.3142 12.1889 33.9267 15.5467 32.0999 15.5467C32.0999 15.5467 33.4807 12.2419 31.9414 10.5524C31.0788 9.60461 34.3284 8.86655 36.7259 8.5332Z" fill="#F4A6A8"/>
<path d="M32.0409 15.2978C32.9477 13.96 32.742 12.8261 32.6882 12.4611C32.6447 12.1675 31.945 10.7238 31.6354 10.9497C31.3258 11.1756 29.6597 15.824 29.6597 15.824C29.6597 15.824 31.3346 14.7614 31.6354 14.6863C31.9362 14.612 31.7983 15.3839 31.7983 15.3839L32.0409 15.2978Z" fill="#E0E0E0"/>
<path d="M31.9311 10.9907C31.9311 10.9907 30.1743 14.3418 30.1743 17.0983V35.5846C30.1743 35.5846 25.7651 33.257 24.5929 31.6418C24.5929 31.6418 23.1715 16.1586 30.7826 10.7891L31.9311 10.9907Z" fill="#465B65"/>
<path d="M31.0953 10.8359L28.9655 13.2952C28.8446 13.432 28.8121 13.6256 28.88 13.7948L29.4683 15.2871L28.4649 16.959C28.3477 17.1584 28.3248 17.3991 28.4037 17.6169L30.1841 22.4051V17.0995C30.1841 14.3423 31.9409 10.9919 31.9409 10.9919L31.0953 10.8359Z" fill="#37474F"/>
<path d="M32.9876 1.79492C31.7933 1.79492 28.725 2.62276 28.5429 5.36089C28.234 10.0042 29.5035 12.314 31.7985 12.509C33.3924 12.643 36.3029 11.4685 36.7246 8.53392C36.9973 6.63688 37.3239 1.79492 32.9876 1.79492Z" fill="#F4A6A8"/>
<path d="M29.3469 8.77148C30.1129 9.21374 31.7989 9.57064 33.4503 8.94147C33.1318 10.4507 29.7089 11.5567 29.3469 8.77148Z" fill="#5B3E41"/>
<path d="M33.2624 8.47529C33.8653 8.40802 34.3214 8.06244 34.2812 7.70338C34.241 7.34433 33.7197 7.10779 33.1168 7.17506C32.5139 7.24234 32.0577 7.58795 32.098 7.94701C32.1382 8.30606 32.6595 8.54257 33.2624 8.47529Z" fill="#F0806D"/>
<path d="M28.5781 8.21912C28.6681 8.24855 28.7632 8.27134 28.8634 8.28753C29.4628 8.38098 29.9936 8.1676 30.0496 7.80997C30.1056 7.45308 29.6648 7.08809 29.0654 6.99463C28.8634 6.96299 28.6696 6.96666 28.4993 6.9983L28.5781 8.21912Z" fill="#F0806D"/>
<path d="M31.1985 7.81153C30.7923 7.71955 30.6138 7.69452 30.2688 7.28906C30.1582 7.61505 30.3057 8.14341 30.5645 8.27881C30.4472 8.08822 30.3676 7.88585 30.3425 7.53558C30.4111 7.73132 31.1063 7.96459 31.1985 7.81153Z" fill="#0B1320"/>
<path d="M36.4314 7.18146C36.4314 7.18146 35.7723 6.76275 35.9765 5.35137C36.1807 3.94 35.3639 3.01649 34.9842 3.41827C33.3867 5.11148 30.12 4.525 28.8904 3.15483C27.6607 1.78466 29.113 0.111328 30.6302 0.111328C31.5547 0.111328 32.4415 0.779496 33.8378 0.819233C36.2331 0.886932 38.4462 0.111344 37.9441 2.68464C41.182 2.98855 38.9844 5.92904 39.0227 7.37427C39.1016 10.2993 38.8155 11.25 36.6371 10.9711C36.2847 10.1757 36.6784 8.10937 36.6784 8.10937L36.4314 7.18146Z" fill="#535470"/>
<path d="M36.4304 7.18235C36.4304 7.18235 36.7201 5.88281 37.6947 5.88281C38.6693 5.88281 38.6502 6.88431 38.527 7.55247C38.4039 8.22063 37.9166 8.86746 37.2686 8.86746C36.8904 8.86599 36.5543 8.62756 36.4297 8.27141V7.18235H36.4304Z" fill="#F4A6A8"/>
<path d="M37.9716 3.51889C37.9716 3.51889 38.1787 2.59099 38.9322 2.56745C38.7995 2.11489 38.2384 1.9405 37.9487 2.2422C37.7747 2.44309 37.785 2.88166 37.8285 3.14363L37.9716 3.51889Z" fill="#535470"/>
<path d="M32.6428 15.2641C32.6428 15.2641 35.4708 13.8571 36.7248 12.1566V11.2559H36.7491C37.1163 11.3677 37.4171 11.6312 37.577 11.9792L38.1565 13.239L35.6028 17.4753C35.6028 17.4753 34.2286 15.0646 33.7428 15.0933C33.3572 15.1478 32.9856 15.2729 32.6451 15.4613L32.6428 15.2641Z" fill="#E0E0E0"/>
<path d="M37.9041 12.6973L34.5844 18.367C34.521 18.4752 34.4878 18.5988 34.4878 18.7239L34.1848 37.726C34.1848 37.726 39.9417 38.6024 42.8994 36.1763L41.1058 17.5885L41.5452 15.1977C41.5444 15.1977 39.0851 13.2403 37.9041 12.6973Z" fill="#465B65"/>
<path d="M38.6995 13.0126L37.7485 12.3555L37.7596 12.3776C37.851 12.574 37.8392 12.8029 37.7286 12.9891L34.5822 18.3674C34.5188 18.4756 34.4856 18.5992 34.4856 18.7243V24.1903L36.9007 20.3307C37.0268 20.132 37.0364 19.8811 36.9273 19.6736L36.1458 18.1791L38.1923 16.998C38.3766 16.8913 38.4975 16.7015 38.5174 16.4895L38.8138 13.2459C38.8197 13.1524 38.7762 13.0641 38.6995 13.0126Z" fill="#37474F"/>
<path d="M31.8435 16.2949C31.8435 16.2949 31.0687 24.4041 31.0967 27.6014L32.3654 30.0798L33.9549 28.3262L33.0127 16.7107L31.8435 16.2949Z" fill="#ED8592"/>
<path d="M31.9921 14.5606C31.9921 14.5606 33.4548 14.7799 34.0121 15.1066C34.4684 15.3649 33.3478 17.1244 33.2269 17.1244C32.8952 17.1244 31.939 17.0206 31.5881 16.6195C31.3839 16.387 31.4259 14.4576 31.9921 14.5606Z" fill="#465B65"/>
<path d="M24.0932 15.5256C23.5927 15.0436 23.4349 14.3902 24.06 13.7463C24.6859 13.1017 25.5971 12.9707 26.0933 13.4527C26.5894 13.9347 26.4995 14.8464 25.8736 15.4911C25.2477 16.1349 24.596 16.0076 24.0932 15.5256Z" fill="#535EA7"/>
<path d="M24.0725 15.1062C24.2022 14.9812 24.7308 15.1327 24.5775 15.6169C24.5775 15.6169 23.8093 16.6096 23.4053 17.2145C23.3132 17.3528 22.6018 17.0916 22.8502 16.6494C23.1893 16.085 23.5999 15.5662 24.0725 15.1062Z" fill="#535EA7"/>
<path d="M21.3285 25.0439C21.2828 25.0431 21.2393 25.0248 21.2069 24.9916C21.1752 24.9585 21.1582 24.9144 21.159 24.8688C21.2401 19.4904 23.19 16.6264 23.2733 16.508C23.3271 16.43 23.4348 16.4101 23.5129 16.4638C23.5911 16.5175 23.611 16.625 23.5571 16.703C23.5372 16.7317 21.5814 19.6089 21.504 24.8754C21.504 24.921 21.4855 24.9651 21.4524 24.9968C21.4192 25.0284 21.3742 25.0461 21.3285 25.0439Z" fill="#4285C5"/>
<g opacity="0.5">
<path opacity="0.5" d="M21.3302 25.0459C21.2845 25.0451 21.241 25.0268 21.2086 24.9936C21.1769 24.9605 21.1599 24.9164 21.1607 24.8708C21.2418 19.4924 23.1917 16.6284 23.275 16.5099C23.3288 16.4319 23.4365 16.412 23.5146 16.4658C23.5928 16.5195 23.6127 16.6269 23.5589 16.7049C23.539 16.7336 21.5831 19.6108 21.5057 24.8774C21.5057 24.923 21.4873 24.9671 21.4541 24.9988C21.4209 25.0304 21.376 25.0474 21.3302 25.0459Z" fill="#010101"/>
</g>
<path d="M12.6802 20.6484L10.467 21.9877V29.7106L26.2229 38.8256L26.9881 30.5693L24.786 27.1174L12.6802 20.6484Z" fill="#535EA7"/>
<path d="M26.2231 38.8266L35.2386 33.602V32.747C35.2386 32.2061 34.9791 31.6984 34.5404 31.3812C34.1018 31.0641 33.5378 30.9765 33.0232 31.145L29.1329 32.4247C29.1329 32.4247 26.9891 33.0995 26.9891 30.5703L26.2239 30.805V38.8266H26.2231Z" fill="#535EA7"/>
<path d="M10.4672 28.5664V72.8047L26.1854 81.8631V37.8802L10.4672 28.5664Z" fill="#535EA7"/>
<path d="M22.6166 44.6222L20.632 41.1901L20.6387 41.1857L15.3012 38.1113L15.3078 38.1224L13.3225 39.2659V67.8989L15.3078 71.3309L20.632 74.3994L22.6166 73.2552V44.6222Z" fill="#535EA7"/>
<path d="M20.632 74.3994L22.6166 73.2552V44.6222L20.632 41.1901L20.6387 41.1857L15.3012 38.1113L15.3078 38.1224L13.3225 39.2659V67.8989L15.3078 71.3309L20.632 74.3994Z" fill="#6573B6"/>
<path d="M35.2383 33.1582V45.6811C32.5298 47.3044 30.8725 50.2264 30.871 53.3803V79.103L26.1853 81.8581V37.8817L35.2383 33.1582Z" fill="#535EA7"/>
<path d="M35.7177 32.1992C35.7177 32.1992 34.0516 33.1941 33.4213 33.5576C32.7909 33.9211 32.499 34.1559 32.6266 34.5216C32.7541 34.8873 33.7862 34.721 34.5411 34.4907C34.5411 34.4907 33.2104 35.5209 32.2248 36.1478C31.2391 36.7748 31.2546 37.1361 31.6387 37.5128C32.0228 37.8896 33.6144 38.5232 34.7254 38.1531C35.8364 37.7829 36.9474 36.7814 38.0982 34.7188C38.0982 34.7195 37.8586 32.2544 35.7177 32.1992Z" fill="#F4A6A8"/>
<path d="M41.54 15.1992C41.54 15.1992 37.3135 16.6202 38.5874 24.1914C38.5874 24.1914 40.6089 27.2474 40.9664 27.5587C37.8591 29.7383 35.4668 32.1931 35.4668 32.1931C35.4668 32.1931 37.6357 34.3602 38.8159 36.1786C38.8159 36.1786 45.1501 32.0636 46.2176 28.1878C47.5947 23.1877 42.8529 16.1919 41.54 15.1992Z" fill="#37474F"/>
<path d="M13.0103 7.54586C12.5237 6.88285 11.9693 6.27209 11.3611 5.72167C10.7551 5.16904 10.0961 4.67234 9.38908 4.25732C9.21215 4.1543 9.03154 4.05789 8.84502 3.974C8.75214 3.93206 8.65776 3.89306 8.56119 3.86215C8.51327 3.8467 8.46462 3.83345 8.4167 3.82536C8.39237 3.82168 8.36878 3.81873 8.34593 3.81947C8.32381 3.81947 8.30244 3.8261 8.29802 3.83272C8.29654 3.83346 8.29283 3.84448 8.28988 3.85478C8.28767 3.86509 8.28623 3.87612 8.28549 3.88716C8.28401 3.90997 8.28619 3.93353 8.28988 3.95708C8.29799 4.00491 8.31348 4.05202 8.33117 4.09911C8.36656 4.19257 8.41302 4.28379 8.46241 4.37283C8.56194 4.55091 8.67471 4.72239 8.79045 4.89163C9.25858 5.56568 9.76802 6.21247 10.2656 6.86738C9.74959 6.22719 9.22764 5.59069 8.74992 4.91959C8.63123 4.75108 8.51548 4.58034 8.41227 4.40079C8.36067 4.31101 8.31202 4.21904 8.27368 4.12117C8.25451 4.07261 8.23829 4.02183 8.22797 3.96811C8.22354 3.94088 8.22059 3.91368 8.22206 3.88425C8.2228 3.86953 8.22428 3.85479 8.22797 3.84081C8.23165 3.82683 8.23388 3.8114 8.24863 3.79227C8.27959 3.75989 8.31424 3.7584 8.34226 3.75619C8.37174 3.75472 8.39901 3.7584 8.42555 3.76208C8.47863 3.77091 8.52949 3.7849 8.57962 3.80035C8.67988 3.83199 8.77573 3.87098 8.87083 3.91292C9.0603 3.99754 9.24311 4.09395 9.42299 4.19623C9.78201 4.40154 10.1234 4.63407 10.4529 4.88279C10.7817 5.13152 11.0987 5.39641 11.4009 5.67751C12.004 6.24044 12.551 6.86372 13.0103 7.54586Z" fill="#0B1421"/>
<path d="M8.14965 7.03516C8.05382 7.19189 7.98011 7.36189 7.94768 7.5407C7.9145 7.71878 7.91744 7.90199 7.95135 8.07933C8.01843 8.43475 8.18873 8.76516 8.39515 9.06319C8.49836 9.20815 8.63182 9.33472 8.76894 9.45393C8.9068 9.57388 9.0535 9.68353 9.19946 9.79391C9.34617 9.90355 9.49731 10.0088 9.64917 10.1118C9.79956 10.217 9.95362 10.3171 10.1062 10.4201C9.78406 10.242 9.47001 10.05 9.16628 9.84026C9.01367 9.7365 8.8677 9.62391 8.72542 9.5047C8.58461 9.38549 8.44677 9.25895 8.33471 9.10515C8.12903 8.79756 7.95356 8.45978 7.89606 8.08817C7.86804 7.90421 7.87101 7.71437 7.91229 7.53262C7.95726 7.35233 8.03981 7.18233 8.14965 7.03516Z" fill="#0B1421"/>
<path d="M20.2753 12.5482L18.5643 11.4849L16.8598 10.4127L15.1583 9.33472L13.4612 8.25005L13.4974 8.24933C13.2076 8.45685 12.9378 8.69821 12.6842 8.95134C12.4313 9.20595 12.1984 9.48114 11.9883 9.77253C11.7759 10.0625 11.5953 10.3745 11.4413 10.699L11.3307 10.9448L11.2392 11.1987L11.1943 11.326L11.1604 11.4562L11.0918 11.7174L11.1545 11.4547L11.1854 11.323L11.2275 11.1942L11.313 10.9374L11.4184 10.688C11.4368 10.6468 11.4523 10.6041 11.473 10.5636L11.5349 10.4429C11.5776 10.3635 11.6138 10.2803 11.6617 10.203L11.8018 9.97051C11.8489 9.89325 11.9027 9.82039 11.9529 9.74533C12.1608 9.44952 12.3915 9.16913 12.6429 8.90938C12.895 8.64962 13.1656 8.40901 13.4605 8.19414L13.4775 8.18164L13.4966 8.19339L15.1981 9.27217L16.8952 10.3576L18.5886 11.4481L20.2753 12.5482Z" fill="#0B1421"/>
<path d="M26.988 11.748C26.3201 11.8349 25.6514 11.9144 24.9828 11.9946L22.9768 12.2301C22.3081 12.3051 21.6387 12.3838 20.9716 12.4677C20.8049 12.4883 20.6376 12.5104 20.4717 12.5361C20.3884 12.5501 20.3059 12.5597 20.2299 12.5899C20.1533 12.6193 20.0803 12.6598 20.0103 12.7047C19.7301 12.8864 19.489 13.1263 19.2634 13.3743C19.3688 13.2433 19.4824 13.119 19.6026 13.0005C19.7227 12.8827 19.8495 12.7702 19.9903 12.6738C20.0604 12.6259 20.1348 12.5833 20.2152 12.5509C20.2955 12.517 20.3818 12.5053 20.4644 12.4898C20.631 12.4604 20.7976 12.4354 20.9642 12.4111C21.6314 12.3161 22.3 12.2374 22.9687 12.1565C23.6381 12.0821 24.3067 12.0063 24.9769 11.9379C25.6463 11.8702 26.3164 11.804 26.988 11.748Z" fill="#0B1421"/>
<path d="M15.6855 16.666C16.0335 16.9368 16.38 17.2091 16.7317 17.4747C17.0818 17.7419 17.4349 18.006 17.7947 18.2599C17.9753 18.3857 18.156 18.5108 18.341 18.63C18.526 18.7478 18.714 18.8633 18.9109 18.9531C19.3134 19.126 19.7358 19.2533 20.1612 19.3622C21.0127 19.583 21.8863 19.7161 22.7599 19.8258C23.197 19.8795 23.6357 19.9259 24.075 19.9626C24.5144 20.0024 24.9538 20.0333 25.3939 20.0627C24.5122 20.0355 23.6305 19.9781 22.7532 19.8817C22.3139 19.8368 21.8767 19.7728 21.441 19.7014C21.0053 19.6301 20.5718 19.5417 20.1427 19.4336C19.7152 19.3225 19.2905 19.1915 18.8836 19.0149C18.6794 18.9214 18.4914 18.8037 18.3056 18.6837C18.1198 18.5638 17.9399 18.435 17.7608 18.3062C17.0487 17.7853 16.3616 17.2319 15.6855 16.666Z" fill="#0B1421"/>
<path d="M31.0278 65.0942C31.7061 65.0331 32.3725 64.8734 33.005 64.6299L32.991 64.649C33.0161 63.7837 33.0412 62.9183 33.0721 62.0529L33.1643 59.4576L33.2675 56.8622C33.3021 55.9969 33.3441 55.1322 33.3862 54.2676C33.3655 55.1329 33.3449 55.9991 33.3176 56.8637L33.2343 59.4598L33.1399 62.0551C33.1082 62.9205 33.0714 63.7851 33.0345 64.6505L33.0338 64.6645L33.0205 64.6696C32.3806 64.908 31.7061 65.0464 31.0278 65.0942Z" fill="#0B1421"/>
<path d="M42.3277 50.6795L42.2833 49.1092L42.2456 47.5382L42.1843 44.3967L42.1391 41.2554L42.1229 39.6843L42.114 38.1133L42.1591 39.6836L42.1961 41.2539L42.2575 44.3953L42.3025 47.5374L42.3188 49.1085L42.3277 50.6795Z" fill="#0B1421"/>
<path d="M40.9648 68.4205C41.7456 68.3101 42.5174 68.0989 43.2185 67.7398L43.2089 67.7553L43.161 63.4638C43.1477 62.0332 43.1249 60.6028 43.1197 59.1722C43.1094 57.7417 43.1064 56.3105 43.091 54.8814C43.0718 54.1677 42.9929 53.4553 42.8661 52.7526C42.7393 52.0499 42.5572 51.3559 42.3235 50.6797C42.5675 51.3523 42.7599 52.044 42.8978 52.7467C43.0357 53.4494 43.1131 54.164 43.1374 54.88C43.1602 56.3112 43.1706 57.741 43.1883 59.1715C43.2074 60.602 43.2089 62.0325 43.2192 63.463L43.2435 67.7545V67.7656L43.234 67.77C42.5233 68.1217 41.747 68.3211 40.9648 68.4205Z" fill="#0B1421"/>
<path d="M28.4962 3.06836C28.4217 3.19272 28.3458 3.31634 28.2912 3.45027C28.2588 3.51429 28.2374 3.58345 28.2102 3.64968C28.1881 3.71812 28.1659 3.78657 28.1482 3.85574C28.0782 4.13316 28.0516 4.42162 28.0745 4.7064C28.0907 4.99265 28.1541 5.27446 28.2382 5.54894L28.3082 5.75352C28.331 5.82196 28.362 5.88745 28.3886 5.95441C28.4372 6.09055 28.5072 6.21784 28.564 6.35177C28.4151 6.10305 28.2831 5.84181 28.1844 5.56733C28.0878 5.29212 28.0229 5.00441 28.0008 4.71154C27.9838 4.41867 28.0096 4.12213 28.0937 3.84029C28.177 3.55919 28.3185 3.29721 28.4962 3.06836Z" fill="#0B1421"/>
<path d="M30.5327 15.2824C30.6971 15.1499 30.8733 15.0373 31.0546 14.9328C31.146 14.882 31.2382 14.832 31.334 14.7886C31.4299 14.7459 31.528 14.7025 31.6326 14.6855C31.5847 14.7076 31.5397 14.7327 31.4948 14.7599L31.3606 14.8394C31.2714 14.8931 31.1807 14.9446 31.0908 14.9968C30.9094 15.0984 30.7266 15.1992 30.5327 15.2824Z" fill="#0B1421"/>
<path d="M24.5421 26.4773C24.5672 25.8585 24.6055 25.2396 24.6578 24.6222C24.7124 24.0048 24.7817 23.3889 24.8665 22.7745C25.0375 21.5463 25.2786 20.327 25.6007 19.129C25.9295 17.9333 26.3402 16.7559 26.8762 15.6359C27.1445 15.0766 27.4431 14.5307 27.777 14.0075C28.1132 13.4857 28.484 12.9861 28.8925 12.5195C28.4929 12.9942 28.1323 13.4997 27.808 14.0266C27.4814 14.5527 27.1895 15.0995 26.9277 15.6602C26.4043 16.7816 25.9944 17.9539 25.6723 19.1482C25.3449 20.3417 25.1054 21.5581 24.9225 22.7826C24.8311 23.3948 24.7552 24.0092 24.6932 24.6259C24.6298 25.2411 24.5797 25.8585 24.5421 26.4773Z" fill="#0B1421"/>
<path d="M29.7287 12.4121C29.5554 12.6262 29.3785 12.8374 29.2023 13.0494L29.0689 13.2076C29.0261 13.2606 28.976 13.3121 28.9421 13.3658C28.8728 13.4769 28.8551 13.6167 28.8935 13.7404C28.99 13.992 29.0962 14.2503 29.1972 14.5049C29.2996 14.7602 29.4021 15.0156 29.5009 15.2731L29.5075 15.2893L29.4987 15.3041C29.2702 15.6786 29.0461 16.0554 28.8138 16.4277L28.4681 16.9869C28.359 17.1724 28.3354 17.4071 28.4039 17.6154C28.3214 17.4115 28.3354 17.1694 28.4393 16.9715C28.547 16.7794 28.659 16.5918 28.7688 16.4012C28.9878 16.0208 29.2149 15.6455 29.4382 15.268L29.436 15.2989C29.3328 15.0435 29.2333 14.7867 29.1338 14.5306C29.035 14.2724 28.9325 14.0215 28.8359 13.7573C28.7961 13.616 28.8204 13.46 28.9008 13.3393C28.9421 13.2782 28.9915 13.2311 29.0365 13.1789L29.1736 13.0244C29.3579 12.8191 29.5422 12.6145 29.7287 12.4121Z" fill="#0B1421"/>
<path d="M30.1853 22.4047C30.1698 21.5843 30.1632 20.763 30.1573 19.9426L30.1484 17.4803C30.1484 17.275 30.1484 17.0705 30.1551 16.8637C30.158 16.7607 30.1669 16.6577 30.1728 16.5547C30.1809 16.4516 30.1927 16.3493 30.2023 16.2471C30.2494 15.8379 30.3232 15.4317 30.4197 15.0322C30.6107 14.2316 30.8746 13.4508 31.1857 12.6914C31.0449 13.077 30.91 13.4648 30.7913 13.857C30.6704 14.2492 30.5627 14.6444 30.4743 15.0447C30.3873 15.445 30.3121 15.8475 30.2686 16.2544C30.2597 16.356 30.2487 16.4575 30.2406 16.5598C30.2354 16.6621 30.2266 16.7636 30.2251 16.8659C30.2192 17.0698 30.2214 17.275 30.2214 17.4803L30.2126 19.9426C30.2082 20.763 30.2008 21.5835 30.1853 22.4047Z" fill="#0B1421"/>
<path d="M29.2355 3.5293C29.0696 3.74638 28.9295 3.98259 28.8219 4.23278C28.7158 4.48371 28.6406 4.7464 28.6 5.01499C28.5558 5.28284 28.5543 5.55659 28.5388 5.82886L28.527 6.23724L28.5241 6.64563C28.5278 7.19016 28.5521 7.73546 28.6155 8.27558C28.6774 8.81644 28.7829 9.3514 28.9451 9.87018C29.1117 10.3853 29.335 10.8886 29.6668 11.3176C29.8312 11.5317 30.0214 11.7267 30.2359 11.8916C30.4504 12.0564 30.6878 12.1903 30.94 12.2882C31.4457 12.4839 32.0023 12.5391 32.5412 12.4678C33.0823 12.403 33.6109 12.2411 34.1055 12.0093C33.616 12.2514 33.0897 12.4258 32.5456 12.5031C32.003 12.5825 31.4368 12.534 30.9193 12.3404C30.3996 12.1499 29.9491 11.7937 29.6137 11.3574C29.2738 10.9217 29.0446 10.4118 28.875 9.89153C28.7136 9.36686 28.6096 8.82671 28.5492 8.28291C28.488 7.73912 28.4629 7.19165 28.4681 6.64491L28.4762 6.23505L28.4931 5.82591C28.5123 5.55364 28.516 5.27914 28.5654 5.00834C28.6118 4.73828 28.6937 4.47412 28.8057 4.22466C28.9185 3.97594 29.0645 3.74196 29.2355 3.5293Z" fill="#0B1421"/>
<path d="M36.4303 7.1797C36.288 7.09287 36.1833 6.9545 36.103 6.80954C36.0219 6.66237 35.9732 6.49977 35.9422 6.33641C35.9098 6.17231 35.9047 6.00527 35.9091 5.8397C35.9157 5.75729 35.9224 5.67488 35.9305 5.59246C35.9459 5.51078 35.9584 5.42982 35.9761 5.34961C35.9754 5.43203 35.9695 5.51369 35.9666 5.59537L35.9658 5.8397C35.9754 6.00159 35.9821 6.16422 36.0152 6.32243C36.044 6.48064 36.0882 6.63664 36.1538 6.78381C36.1885 6.85666 36.2253 6.92877 36.2725 6.99426C36.316 7.06196 36.3691 7.12524 36.4303 7.1797Z" fill="#0B1421"/>
<path d="M38.4692 10.6378C38.3586 10.7548 38.22 10.8453 38.0711 10.9093C37.9207 10.9719 37.7599 11.0065 37.5992 11.0263C37.2763 11.0675 36.9505 11.0411 36.6306 11.005L36.6107 11.0028L36.6025 10.9844C36.5214 10.7967 36.4912 10.5966 36.4728 10.3986C36.4558 10.2007 36.4536 10.002 36.4603 9.80481C36.4772 9.40965 36.5237 9.01744 36.5937 8.62891C36.5753 8.82538 36.5576 9.02112 36.545 9.21759C36.531 9.41333 36.5222 9.60981 36.5215 9.80628C36.5192 10.002 36.5222 10.1985 36.5421 10.392C36.562 10.5856 36.5959 10.7791 36.6674 10.9549L36.6394 10.9344C36.9564 10.9763 37.2764 10.9991 37.5934 10.9741C37.7519 10.9609 37.9089 10.9307 38.0585 10.8784C38.2089 10.8254 38.3483 10.7437 38.4692 10.6378Z" fill="#0B1421"/>
<path d="M37.8032 2.80705C38.0495 2.75186 38.306 2.73492 38.5589 2.77098C38.6223 2.77686 38.6835 2.79749 38.7461 2.81C38.8081 2.82619 38.867 2.85121 38.9282 2.87108C38.9857 2.89978 39.0447 2.92479 39.1 2.95717C39.1531 2.99323 39.2113 3.02264 39.2585 3.06679C39.4597 3.22648 39.616 3.44576 39.6971 3.6908C39.7163 3.75261 39.7384 3.81297 39.748 3.87699L39.7672 3.97192L39.7768 4.06757C39.7856 4.13159 39.7841 4.1956 39.7834 4.25962C39.7834 4.29126 39.7841 4.32366 39.7827 4.3553L39.7745 4.45095C39.7259 4.96016 39.5652 5.44437 39.4044 5.92048C39.3226 6.15889 39.2386 6.39656 39.1671 6.63718C39.0948 6.87707 39.0299 7.12212 39.0233 7.37452C39.0137 7.12138 39.0712 6.87119 39.1324 6.62763C39.1973 6.38332 39.2754 6.14344 39.3506 5.90355C39.4995 5.42377 39.6595 4.9425 39.7016 4.44506C39.7252 4.19781 39.7141 3.9469 39.6337 3.7129C39.5593 3.47742 39.4096 3.27063 39.2224 3.11095C39.1781 3.06754 39.1228 3.0381 39.0727 3.00205C39.0203 2.96893 38.9636 2.94318 38.909 2.91448C38.8508 2.89314 38.794 2.86738 38.7343 2.85046C38.6739 2.83647 38.6149 2.81515 38.553 2.80705C38.3067 2.75922 38.0524 2.76879 37.8032 2.80705Z" fill="#0B1421"/>
<path d="M33.8367 0.81949C34.324 0.818019 34.8098 0.790793 35.2963 0.765774C35.5396 0.752529 35.7829 0.743674 36.0277 0.740731C36.2717 0.738523 36.5172 0.742965 36.7612 0.768721C37.0045 0.798155 37.2507 0.846727 37.4756 0.958578C37.5869 1.01524 37.6923 1.0866 37.7771 1.18153C37.8619 1.27645 37.9201 1.39124 37.9577 1.50972C37.9968 1.62819 38.0145 1.75109 38.0233 1.87398C38.0329 1.99687 38.0307 2.119 38.0226 2.24116C38.0034 2.48473 37.9643 2.72537 37.9098 2.96232C37.9481 2.72243 37.9798 2.48106 37.9865 2.23897C37.9901 2.11828 37.9902 1.99686 37.9769 1.87765C37.9643 1.75844 37.9444 1.63925 37.9039 1.5274C37.8641 1.41554 37.8073 1.31104 37.7299 1.22421C37.6525 1.13812 37.5522 1.07113 37.4461 1.01815C37.2323 0.913659 36.9927 0.868043 36.7538 0.841552C36.2739 0.787098 35.7859 0.810644 35.2993 0.821682C35.056 0.827569 34.812 0.834206 34.5687 0.836414C34.324 0.836414 34.08 0.834208 33.8367 0.81949Z" fill="#0B1421"/>
<path d="M34.9821 3.41741C34.7145 3.70734 34.3894 3.94502 34.0304 4.11353C33.6721 4.28572 33.2835 4.38653 32.8913 4.44466C32.4977 4.49691 32.0974 4.50058 31.7029 4.45717C31.3078 4.4167 30.9178 4.33136 30.5404 4.20627C30.1651 4.07749 29.8009 3.90898 29.4699 3.68822C29.3048 3.5771 29.1463 3.45567 29.0033 3.31659C28.8603 3.17751 28.7327 3.02226 28.6295 2.85006C28.5307 2.67567 28.4585 2.48656 28.4268 2.28861C28.3951 2.0914 28.4024 1.88757 28.4526 1.69403C28.5521 1.30624 28.7902 0.967752 29.0881 0.710938C28.8013 0.979526 28.5735 1.32021 28.488 1.70212C28.443 1.89197 28.4385 2.08994 28.4732 2.28053C28.5071 2.47185 28.5808 2.6536 28.6789 2.82064C28.7334 2.90085 28.7851 2.98324 28.8499 3.05609C28.9097 3.13262 28.9789 3.2018 29.0475 3.27024C29.1876 3.40564 29.3446 3.52338 29.5075 3.63156C29.8341 3.84716 30.1939 4.01053 30.5647 4.13563C31.3071 4.38729 32.1055 4.47779 32.8847 4.38728C33.2732 4.33724 33.6588 4.24304 34.0164 4.07968C34.3754 3.92515 34.7027 3.69556 34.9821 3.41741Z" fill="#0B1421"/>
<path d="M36.4285 7.17981C36.4889 6.91122 36.5951 6.65221 36.7455 6.41894C36.8974 6.18935 37.1126 5.98403 37.3861 5.89867C37.521 5.85452 37.6655 5.84126 37.8056 5.85451C37.9464 5.86555 38.0887 5.90309 38.2118 5.97962C38.3342 6.05615 38.4322 6.17095 38.4934 6.29973C38.5568 6.42776 38.5893 6.56756 38.6069 6.70664C38.6379 6.98627 38.6099 7.26591 38.5612 7.53818C38.5096 7.81266 38.4071 8.07904 38.2457 8.30789C38.0879 8.53748 37.8668 8.73099 37.6014 8.82518C37.4687 8.87228 37.3264 8.8848 37.1878 8.87229C37.0492 8.85757 36.915 8.80899 36.8 8.7332C36.9195 8.80237 37.0536 8.84357 37.1893 8.85314C37.3249 8.85976 37.4628 8.84211 37.5889 8.79134C37.8425 8.6942 38.0511 8.50214 38.1985 8.27623C38.2722 8.16291 38.3357 8.04224 38.3858 7.91714C38.4352 7.79058 38.4706 7.66031 38.4949 7.52712C38.5413 7.25853 38.5657 6.98405 38.5332 6.7162C38.5177 6.58301 38.4875 6.45055 38.4293 6.33134C38.3732 6.2114 38.2855 6.10838 38.1757 6.037C38.0644 5.96636 37.9331 5.93031 37.8004 5.91854C37.6662 5.90603 37.5313 5.91559 37.4031 5.95386C37.1436 6.02744 36.9305 6.21951 36.775 6.441C36.6172 6.66103 36.5051 6.91564 36.4285 7.17981Z" fill="#0B1421"/>
<path d="M37.0902 7.46852C37.0858 7.3758 37.0983 7.28087 37.133 7.1911C37.1507 7.14621 37.1787 7.10426 37.2163 7.07041C37.2539 7.03656 37.3033 7.01449 37.3541 7.00861C37.405 7.00198 37.4551 7.00788 37.5031 7.02039C37.5517 7.03143 37.6018 7.05793 37.638 7.0984C37.7117 7.18155 37.7183 7.29264 37.7095 7.38757C37.6851 7.58183 37.6019 7.75992 37.4795 7.90709C37.4485 7.94314 37.4139 7.97774 37.3748 8.00644C37.3357 8.0344 37.2907 8.06087 37.2391 8.06529C37.2141 8.0675 37.1861 8.06163 37.1647 8.05207C37.1426 8.04324 37.1212 8.0322 37.1013 8.01969C37.0607 7.99541 37.0246 7.96375 36.9958 7.92696C37.0298 7.9586 37.0688 7.98434 37.1094 8.00421C37.1507 8.0226 37.1949 8.04176 37.2354 8.0322C37.318 8.01307 37.3836 7.94241 37.4367 7.87177C37.4891 7.79892 37.534 7.72019 37.5679 7.63703C37.6033 7.55462 37.6284 7.46703 37.638 7.3802C37.6476 7.29411 37.638 7.2036 37.5878 7.14252C37.5628 7.11235 37.5288 7.09104 37.4868 7.08C37.4455 7.06602 37.402 7.05866 37.3608 7.06161C37.2752 7.06381 37.2045 7.12634 37.1639 7.20508C37.1204 7.28528 37.1005 7.37654 37.0902 7.46852Z" fill="#0B1421"/>
<path d="M38.4239 2.75873C38.4888 2.6925 38.5669 2.63803 38.6539 2.59977C38.7409 2.5615 38.8353 2.54089 38.9311 2.53574L38.8987 2.5799C38.8552 2.44082 38.7652 2.31867 38.6473 2.23331C38.5286 2.14795 38.3826 2.09644 38.2278 2.10159C38.3782 2.06038 38.5485 2.09348 38.6841 2.18031C38.8212 2.26494 38.9237 2.4055 38.9665 2.5615L38.979 2.60566L38.9348 2.60638C38.8463 2.60712 38.7579 2.62036 38.6723 2.64612C38.5854 2.67114 38.5028 2.71016 38.4239 2.75873Z" fill="#0B1421"/>
<path d="M35.3019 16.9702C35.1168 16.7244 34.9465 16.4705 34.7733 16.2196C34.6008 15.9672 34.429 15.7163 34.2499 15.4668C34.4732 15.6795 34.6597 15.926 34.8345 16.1784C35.0062 16.4322 35.1662 16.6942 35.3019 16.9702Z" fill="#0B1421"/>
<path d="M33.491 14.7963C34.0815 14.4195 34.6602 14.0274 35.2094 13.5961C35.4822 13.3783 35.7498 13.1546 36.0026 12.9147C36.254 12.6734 36.4951 12.421 36.7067 12.1443L36.7023 12.1568C36.7067 11.8919 36.7141 11.6262 36.7237 11.3613C36.7333 11.6262 36.7399 11.8919 36.745 12.1568V12.1634L36.7406 12.1693C36.5364 12.4555 36.302 12.7197 36.0491 12.9633C35.797 13.2083 35.5309 13.4372 35.2522 13.6506C34.9743 13.8647 34.6889 14.0693 34.3933 14.2584C34.0999 14.4497 33.7984 14.6293 33.491 14.7963Z" fill="#0B1421"/>
<path d="M39.1385 37.6869C39.8102 37.5603 40.4744 37.3918 41.1091 37.1446C41.4269 37.0231 41.7373 36.8811 42.0344 36.7163C42.3307 36.55 42.6145 36.3623 42.8784 36.149L42.8659 36.1791C42.8195 35.678 42.7716 35.1761 42.7303 34.6743L42.6676 33.9215L42.6108 33.168L42.6986 33.9186L42.7811 34.6699C42.8372 35.1703 42.8851 35.6714 42.936 36.1725L42.9374 36.1909L42.9227 36.2027C42.658 36.4227 42.3698 36.6132 42.0683 36.7773C41.7667 36.9422 41.4527 37.0827 41.1313 37.2027C40.4869 37.4382 39.8161 37.5942 39.1385 37.6869Z" fill="#0B1421"/>
<path d="M37.7303 12.9883C37.3565 13.6572 36.9761 14.3216 36.5942 14.9861L35.4412 16.9737L34.8581 17.9642L34.7121 18.2114C34.6657 18.2938 34.6097 18.3762 34.5728 18.4579C34.5367 18.5418 34.5175 18.633 34.5175 18.725L34.5153 19.012L34.505 20.1607L34.4865 21.3094L34.4681 20.1607L34.4578 19.012L34.4556 18.725C34.4548 18.6257 34.4748 18.5249 34.5138 18.4329C34.533 18.3866 34.5595 18.3431 34.5831 18.3027L34.6554 18.1783L34.7999 17.9296L35.3771 16.9362L36.5448 14.9567C36.937 14.2996 37.33 13.6417 37.7303 12.9883Z" fill="#0B1421"/>
<path d="M36.1477 18.1787C36.4301 17.9984 36.7168 17.8247 37.0036 17.6518C37.2904 17.4789 37.5809 17.3126 37.8691 17.1419L38.0873 17.0175C38.161 16.9748 38.2326 16.9388 38.2901 16.8836C38.4088 16.7761 38.4788 16.6231 38.4928 16.4619L38.5488 15.963C38.5702 15.7967 38.5886 15.6311 38.6122 15.4648C38.6056 15.6319 38.5938 15.7989 38.5842 15.966L38.5488 16.4663C38.5429 16.6393 38.464 16.8114 38.335 16.9314C38.2716 16.9939 38.192 17.0359 38.122 17.0771L37.9052 17.2044C37.6133 17.3692 37.3243 17.537 37.0309 17.6989C36.739 17.8637 36.4455 18.0249 36.1477 18.1787Z" fill="#0B1421"/>
<path d="M34.9083 23.5202C35.0919 23.1979 35.2828 22.8792 35.4745 22.5621C35.6662 22.2442 35.8631 21.93 36.0577 21.6143C36.2567 21.3016 36.4536 20.9866 36.6548 20.6754L36.8067 20.4421C36.8561 20.3633 36.9128 20.2897 36.946 20.2059C37.0161 20.0388 37.0094 19.8416 36.9298 19.6738C37.0242 19.8342 37.0419 20.0388 36.9799 20.2191C36.9475 20.3104 36.8922 20.3876 36.8465 20.4671L36.7035 20.7055C36.5118 21.0227 36.315 21.3376 36.1204 21.6533C35.9213 21.9661 35.7244 22.281 35.5224 22.5923C35.3204 22.9028 35.1177 23.2133 34.9083 23.5202Z" fill="#0B1421"/>
<path d="M31.7166 28.81C31.833 29.0175 31.9451 29.2272 32.0586 29.4362L32.394 30.0661L32.3439 30.0595L33.1342 29.1787L33.5338 28.7423C33.6672 28.5973 33.7992 28.4509 33.9341 28.3067L33.9267 28.3288L33.8832 27.6628C33.8714 27.4406 33.8574 27.2191 33.8478 26.9961C33.8744 27.2169 33.8965 27.4383 33.9201 27.6598L33.9842 28.3236L33.9857 28.3354L33.9768 28.3449C33.8471 28.4936 33.7137 28.6393 33.5824 28.7864L33.1873 29.2265L32.3881 30.0992L32.3579 30.1323L32.3388 30.0926L32.024 29.4524C31.9215 29.239 31.8168 29.0256 31.7166 28.81Z" fill="#0B1421"/>
<path d="M31.7021 17.8652L31.548 20.0176L31.391 22.1693C31.3364 22.886 31.2885 23.6035 31.2406 24.3209L31.1735 25.3975C31.1507 25.7566 31.1329 26.1157 31.113 26.4748C31.1197 25.7551 31.1484 25.0362 31.1838 24.318C31.2192 23.5998 31.2678 22.8816 31.3172 22.1641C31.3718 21.4467 31.4271 20.7299 31.4912 20.0132C31.5554 19.2965 31.6239 18.5805 31.7021 17.8652Z" fill="#0B1421"/>
<path d="M31.9921 14.5606C31.9921 14.5606 33.4548 14.7799 34.0121 15.1066C34.4684 15.3649 33.3478 17.1244 33.2269 17.1244C32.8952 17.1244 31.939 17.0206 31.5881 16.6195C31.3839 16.387 31.4259 14.4576 31.9921 14.5606Z" fill="#E85865"/>
<path d="M24.0932 15.5256C23.5927 15.0436 23.4349 14.3902 24.06 13.7463C24.6859 13.1017 25.5971 12.9707 26.0933 13.4527C26.5894 13.9347 26.4995 14.8464 25.8736 15.4911C25.2477 16.1349 24.596 16.0076 24.0932 15.5256Z" stroke="#0B1421" stroke-miterlimit="10"/>
<path d="M24.0725 15.1062C24.2022 14.9812 24.7308 15.1327 24.5775 15.6169C24.5775 15.6169 23.8093 16.6096 23.4053 17.2145C23.3132 17.3528 22.6018 17.0916 22.8502 16.6494C23.1893 16.085 23.5999 15.5662 24.0725 15.1062Z" stroke="#0B1421" stroke-miterlimit="10"/>
<path d="M21.3285 25.0439C21.2828 25.0431 21.2393 25.0248 21.2069 24.9916C21.1752 24.9585 21.1582 24.9144 21.159 24.8688C21.2401 19.4904 23.19 16.6264 23.2733 16.508C23.3271 16.43 23.4348 16.4101 23.5129 16.4638C23.5911 16.5175 23.611 16.625 23.5571 16.703C23.5372 16.7317 21.5814 19.6089 21.504 24.8754C21.504 24.921 21.4855 24.9651 21.4524 24.9968C21.4192 25.0284 21.3742 25.0461 21.3285 25.0439Z" stroke="#0B1421" stroke-miterlimit="10"/>
<path d="M21.3302 25.0459C21.2845 25.0451 21.241 25.0268 21.2086 24.9936C21.1769 24.9605 21.1599 24.9164 21.1607 24.8708C21.2418 19.4924 23.1917 16.6284 23.275 16.5099C23.3288 16.4319 23.4365 16.412 23.5146 16.4658C23.5928 16.5195 23.6127 16.6269 23.5589 16.7049C23.539 16.7336 21.5831 19.6108 21.5057 24.8774C21.5057 24.923 21.4873 24.9671 21.4541 24.9988C21.4209 25.0304 21.376 25.0474 21.3302 25.0459Z" stroke="#0B1421" stroke-miterlimit="10"/>
<path d="M26.991 30.5697L24.772 27.1288L24.7794 27.1354L18.7202 23.9123C17.7109 23.3744 16.6995 22.8402 15.6924 22.2972L12.6691 20.6746L12.6971 20.6739L10.4818 22.0087L10.4936 21.9881L10.4869 25.1317L10.47 28.2753L10.453 25.1317L10.4464 21.9881V21.9748L10.4582 21.9682L12.6691 20.6253L12.6831 20.6172L12.6979 20.6246L15.7271 22.2361C16.7378 22.7718 17.7441 23.3156 18.7526 23.8557L24.7993 27.1015L24.8037 27.1038L24.8067 27.1082L26.991 30.5697Z" fill="#0B1421"/>
<path d="M31.3022 31.7109C30.9815 31.8324 30.6593 31.9457 30.3357 32.0582C30.0128 32.1708 29.6877 32.2776 29.3633 32.3872L29.1185 32.4667C29.0345 32.4932 28.9504 32.513 28.8649 32.5278C28.6939 32.5572 28.5185 32.5704 28.3452 32.5513C28.172 32.5336 28.0009 32.4895 27.8454 32.4115C27.6906 32.332 27.5542 32.2209 27.4473 32.087C27.6817 32.3394 28.0142 32.4762 28.3496 32.4946C28.5177 32.5042 28.6865 32.4931 28.8524 32.4615C28.935 32.446 29.0175 32.4255 29.0964 32.399L29.339 32.3173C29.6648 32.2135 29.9899 32.1053 30.3173 32.0045C30.6453 31.9037 30.9726 31.8037 31.3022 31.7109Z" fill="#0B1421"/>
<path d="M35.2156 32.4716C35.1515 32.2597 35.0689 32.0603 34.9546 31.8778C34.8418 31.6938 34.7003 31.5312 34.5396 31.3789C34.7349 31.4841 34.8986 31.649 35.0173 31.8388C35.1345 32.0301 35.209 32.2494 35.2156 32.4716Z" fill="#0B1421"/>
<path d="M10.4673 37.3223L10.4894 46.1931L10.4997 55.0638L10.4975 63.9346L10.4872 72.8046L10.4768 72.7877L16.1799 76.0969L10.4569 72.8223L10.4474 72.8164V72.8046L10.4363 63.9346L10.4341 55.0638L10.4444 46.1931L10.4673 37.3223Z" fill="#0B1421"/>
<path d="M13.3224 43.4414L13.3409 45.7218L13.3512 48.003L13.3593 52.5653L13.3512 57.1276L13.3409 59.4088L13.3224 61.6899L13.3046 59.4088L13.2943 57.1276L13.2854 52.5653L13.2943 48.003L13.3046 45.7218L13.3224 43.4414Z" fill="#0B1421"/>
<path d="M22.6173 44.623C22.2767 44.0563 21.939 43.4883 21.6044 42.9187C21.2682 42.3499 20.935 41.7796 20.6032 41.2078L20.587 41.1806L20.6135 41.1629L20.6202 41.1585L20.6224 41.2159C20.1771 40.9606 19.7304 40.7075 19.2873 40.4484L17.9551 39.6765L16.6267 38.898L15.3026 38.1113L16.6473 38.8626L17.9876 39.6213L19.3242 40.3866C19.7702 40.6405 20.2132 40.9002 20.6578 41.1571L20.705 41.1843L20.6593 41.2144L20.6526 41.2189L20.6629 41.174C20.9932 41.7465 21.3213 42.3197 21.6464 42.8952C21.973 43.4691 22.2966 44.0453 22.6173 44.623Z" fill="#0B1421"/>
<path d="M22.6168 73.2563L22.599 71.0679L22.5887 68.8795L22.5798 64.5018L22.5887 60.1249L22.599 57.9365L22.6168 55.748L22.6353 57.9365L22.6457 60.1249L22.6538 64.5018L22.6457 68.8795L22.6353 71.0679L22.6168 73.2563Z" fill="#0B1421"/>
<path d="M13.325 67.9004C13.6655 68.467 14.0032 69.0344 14.3379 69.6047C14.6741 70.1735 15.0073 70.7438 15.3391 71.3155L15.3265 71.303C15.7703 71.5584 16.2163 71.8108 16.6587 72.0683L17.9879 72.8387C18.8725 73.3553 19.7557 73.8734 20.6345 74.4002C19.738 73.9043 18.8467 73.3995 17.9562 72.8932L16.6233 72.1294C16.178 71.8763 15.7364 71.6172 15.2933 71.3612L15.2852 71.3567L15.2808 71.3486C14.9505 70.7761 14.6225 70.2029 14.2974 69.6275C13.97 69.0542 13.6464 68.478 13.325 67.9004Z" fill="#0B1421"/>
<path d="M30.8705 79.104L26.1936 81.873L26.1693 81.887V81.859L26.1568 69.8932L26.1516 63.9107V57.9282L26.1627 45.9631L26.1855 33.998L26.2084 45.9631L26.2194 57.9282V63.9107L26.2143 69.8932L26.2018 81.859L26.1774 81.8443L30.8705 79.104Z" fill="#0B1421"/>
<path d="M35.2355 38.2695L35.2561 40.1232L35.2672 41.9768L35.2716 43.8304L35.2687 45.684V45.7032L35.2525 45.7127C34.6502 46.0733 34.0877 46.5016 33.5819 46.9895C33.0777 47.4788 32.6243 48.0226 32.2432 48.615C32.611 48.0145 33.0475 47.4538 33.5502 46.9571C34.0508 46.4589 34.6118 46.0203 35.2186 45.6561L35.2023 45.6848L35.1994 43.8312L35.2038 41.9775L35.2149 40.1239L35.2355 38.2695Z" fill="#0B1421"/>
<path d="M31.8879 36.3809C31.7714 36.4765 31.6586 36.5773 31.5643 36.6936C31.5164 36.751 31.4773 36.815 31.447 36.882C31.4183 36.9497 31.405 37.0233 31.4117 37.0946C31.4176 37.1667 31.4448 37.2359 31.4839 37.297C31.5222 37.3588 31.5701 37.4162 31.6225 37.4685C31.7264 37.573 31.8547 37.6502 31.9852 37.7231C32.2506 37.8607 32.5315 37.9711 32.819 38.0542C33.1073 38.1374 33.4029 38.1955 33.7007 38.2176C33.9978 38.2411 34.3001 38.2301 34.5883 38.1558C34.7328 38.1227 34.8729 38.066 35.0107 38.0079C35.1479 37.9483 35.282 37.8806 35.4118 37.8055C35.9323 37.5053 36.3819 37.0939 36.7867 36.648C36.5965 36.882 36.3886 37.1028 36.1667 37.3081C35.9418 37.5104 35.7015 37.6981 35.4405 37.8541C35.3108 37.9328 35.1759 38.0049 35.0365 38.0653C34.8964 38.1256 34.7557 38.1837 34.606 38.2191C34.3089 38.2978 33.9993 38.311 33.6955 38.2889C33.3918 38.2639 33.0918 38.2029 32.8006 38.1168C32.5101 38.0292 32.2248 37.9188 31.9579 37.7709C31.8267 37.6944 31.6955 37.6112 31.5886 37.4986C31.5355 37.4435 31.4869 37.3831 31.4478 37.3161C31.408 37.2499 31.3792 37.1741 31.3755 37.0954C31.3711 37.0166 31.3888 36.9386 31.4212 36.8687C31.4551 36.7996 31.4979 36.7355 31.5488 36.6789C31.6483 36.5663 31.7663 36.4706 31.8879 36.3809Z" fill="#0B1421"/>
<path d="M35.4665 32.3477C35.1576 32.5478 34.8443 32.7413 34.5302 32.9341C34.2162 33.1269 33.8992 33.3138 33.5837 33.5037C33.4252 33.5979 33.2637 33.6854 33.1104 33.7848C32.9585 33.8841 32.8066 33.9908 32.7012 34.1328C32.6503 34.2042 32.6186 34.2874 32.6201 34.3749C32.6208 34.4184 32.629 34.4618 32.6415 34.5045C32.6525 34.5464 32.6762 34.581 32.7093 34.6097C32.7757 34.6663 32.8663 34.6936 32.9548 34.7112C33.0447 34.7274 33.1369 34.734 33.2291 34.7363C33.1369 34.7421 33.044 34.7421 32.9519 34.7304C32.8604 34.7179 32.7654 34.6973 32.6865 34.6377C32.6482 34.6082 32.6164 34.564 32.6024 34.5177C32.587 34.4728 32.5766 34.4257 32.5737 34.3772C32.5678 34.28 32.601 34.1814 32.6541 34.1019C32.7624 33.9408 32.9209 33.8341 33.0735 33.7296C33.2283 33.6273 33.389 33.5361 33.5461 33.4411C33.8645 33.2564 34.1808 33.0688 34.5008 32.8863C34.8214 32.7031 35.1414 32.5221 35.4665 32.3477Z" fill="#0B1421"/>
<path d="M44.1667 31.6029C44.4277 31.2909 44.6813 30.973 44.9173 30.6426C45.1546 30.3137 45.378 29.9737 45.5741 29.6198C45.7695 29.2651 45.9479 28.9001 46.0784 28.5175C46.2126 28.1363 46.2966 27.7389 46.3534 27.3393C46.4109 26.939 46.4352 26.5343 46.4322 26.1296C46.4278 25.7248 46.3939 25.3209 46.3445 24.9183C46.2944 24.5166 46.2229 24.1163 46.1322 23.7211C46.0445 23.3245 45.9383 22.9322 45.8233 22.543C46.0828 23.3127 46.2885 24.1037 46.4006 24.911C46.4588 25.3142 46.4912 25.7212 46.4993 26.1288C46.5045 26.5365 46.4824 26.9449 46.4263 27.3496C46.3666 27.7529 46.2796 28.1539 46.1418 28.5395C46.0061 28.9251 45.8277 29.2945 45.6235 29.647C45.2158 30.3541 44.7116 30.9995 44.1667 31.6029Z" fill="#0B1421"/>
<path d="M41.8602 26.998C41.2491 27.3167 40.6932 27.7273 40.1462 28.143C39.5999 28.5603 39.0699 28.9996 38.5472 29.447C38.0238 29.8929 37.5085 30.3492 36.9998 30.812C36.4919 31.2756 35.9869 31.7436 35.49 32.2182V32.1689C35.7959 32.4787 36.0938 32.7959 36.3872 33.116C36.6813 33.4361 36.9674 33.7642 37.249 34.0954C37.5284 34.4287 37.8041 34.765 38.0665 35.1109C38.3275 35.4582 38.5797 35.8129 38.8141 36.1786C38.5715 35.818 38.3113 35.4707 38.0422 35.1293C37.7709 34.7901 37.4945 34.456 37.2099 34.1278C36.9253 33.8003 36.6334 33.4788 36.3393 33.1594C36.0444 32.8408 35.7458 32.5258 35.4398 32.2182L35.4148 32.1932L35.4398 32.1689C35.9353 31.6899 36.4395 31.2211 36.9511 30.7605C37.462 30.2991 37.9796 29.8444 38.5052 29.3999C39.0323 28.9569 39.5682 28.5242 40.1204 28.1121C40.6755 27.703 41.2425 27.3049 41.8602 26.998Z" fill="#0B1421"/>
<path d="M41.5403 15.1992C41.3427 15.278 41.1584 15.3839 40.9807 15.4995C40.8038 15.6165 40.635 15.7445 40.4772 15.885C40.1595 16.1639 39.8801 16.4848 39.639 16.8314C39.1561 17.526 38.8391 18.3237 38.643 19.1434C38.4506 19.9661 38.3747 20.8138 38.3776 21.66C38.3835 21.8712 38.3835 22.0832 38.3946 22.2944C38.4093 22.5055 38.4182 22.7175 38.4381 22.9279C38.4602 23.1384 38.4771 23.3496 38.5029 23.56L38.5877 24.1907C38.4337 23.3562 38.3378 22.51 38.3216 21.66C38.3068 20.8109 38.3843 19.9573 38.5723 19.1265C38.7757 18.3016 39.0949 17.4936 39.5933 16.799C39.8417 16.4531 40.1293 16.133 40.4544 15.8578C40.6173 15.7202 40.7905 15.5958 40.9711 15.4832C41.151 15.3714 41.3398 15.2706 41.5403 15.1992Z" fill="#0B1421"/>
</svg>
