<svg width="81" height="48" viewBox="0 0 81 48" fill="none" xmlns="http://www.w3.org/2000/svg">
<g clip-path="url(#clip0_1823_50972)">
<path d="M26.2928 23.0832L25.0014 22.234V22.1953C25.0103 21.82 24.9784 21.4412 24.9039 21.0678L24.8968 21.029L26.025 19.9737L25.0476 18.101L23.5291 18.4075L23.5025 18.3794C23.2364 18.1045 22.9437 17.8597 22.6315 17.65L22.5996 17.6289L22.6457 16.0909L20.6217 15.4531L19.7667 16.7357H19.7276C19.3498 16.7251 18.9684 16.7586 18.5923 16.8326L18.5551 16.8396L17.4925 15.7191L15.6069 16.6899L15.9155 18.1979L15.8871 18.2243C15.6104 18.4886 15.3638 18.7793 15.1527 19.0893L15.1314 19.121L13.5828 19.0752L12.9407 21.0854L14.2321 21.9345V21.9733C14.2232 22.3485 14.2551 22.7273 14.3296 23.1008L14.3367 23.1396L13.2085 24.1948L14.186 26.0676L15.7044 25.761L15.731 25.7892C15.9971 26.064 16.2898 26.3107 16.602 26.5186L16.6339 26.5397L16.5878 28.0777L18.6118 28.7154L19.4669 27.4329H19.5059C19.8837 27.4417 20.2651 27.41 20.6412 27.336L20.6784 27.329L21.741 28.4494L23.6267 27.4787L23.318 25.9707L23.3464 25.9442C23.6231 25.68 23.8715 25.3893 24.0808 25.0792L24.1021 25.0475L25.6507 25.0933L26.2928 23.0832ZM23.5486 23.3474C23.2204 24.3728 22.5091 25.2114 21.5441 25.7082C20.9569 26.0112 20.3183 26.1627 19.6762 26.1627C19.2629 26.1627 18.8495 26.0993 18.4451 25.9724C16.3093 25.2994 15.1226 23.025 15.8002 20.9039C16.4778 18.7828 18.7679 17.6042 20.9037 18.2789C21.9361 18.6049 22.7805 19.3113 23.2808 20.2697C23.781 21.2281 23.875 22.3204 23.5468 23.3474H23.5486Z" fill="#BFB7FB"/>
<path d="M42.7864 5.28418H42.8893" stroke="#343771" stroke-width="0.744339" stroke-miterlimit="10"/>
<path d="M43.0933 5.28418H54.0312H59.6615" stroke="#343771" stroke-width="0.744339" stroke-miterlimit="10" stroke-dasharray="0.74 0.74"/>
<path d="M59.7627 5.28418H59.8656V5.38434" stroke="#343771" stroke-width="0.744339" stroke-miterlimit="10"/>
<path d="M59.8655 5.58887V13.1485V41.9792" stroke="#343771" stroke-width="0.744339" stroke-miterlimit="10" stroke-dasharray="0.74 0.74"/>
<path d="M59.8655 42.0811V42.183" stroke="#343771" stroke-width="0.744339" stroke-miterlimit="10"/>
<path d="M4.06738 17.9141V18.0213" stroke="#343771" stroke-width="0.776422" stroke-miterlimit="10"/>
<path d="M4.06738 18.2344V42.0776" stroke="#343771" stroke-width="0.776422" stroke-miterlimit="10" stroke-dasharray="0.78 0.78"/>
<path d="M4.06738 42.1836V42.2908H4.17559" stroke="#343771" stroke-width="0.776422" stroke-miterlimit="10"/>
<path d="M4.38672 42.291L15.7184 42.2822" stroke="#343771" stroke-width="0.776422" stroke-miterlimit="10" stroke-dasharray="0.76 0.76"/>
<path d="M15.825 42.2822H15.9332" stroke="#343771" stroke-width="0.776422" stroke-miterlimit="10"/>
<path d="M1.13696 8.4834H1.2434" stroke="#343771" stroke-width="0.776422" stroke-miterlimit="10"/>
<path d="M1.45801 8.4834H15.4435" stroke="#343771" stroke-width="0.776422" stroke-miterlimit="10" stroke-dasharray="0.77 0.77"/>
<path d="M15.5518 8.4834H15.6582L15.66 8.59059" stroke="#343771" stroke-width="0.776422" stroke-miterlimit="10"/>
<path d="M15.6616 8.80371L15.9313 42.0687" stroke="#343771" stroke-width="0.776422" stroke-miterlimit="10" stroke-dasharray="0.78 0.78"/>
<path d="M15.9314 42.1748L15.9332 42.282H16.0396" stroke="#343771" stroke-width="0.776422" stroke-miterlimit="10"/>
<path d="M16.2524 42.2822H32.7551" stroke="#343771" stroke-width="0.776422" stroke-miterlimit="10" stroke-dasharray="0.77 0.77"/>
<path d="M32.8616 42.2822H32.968" stroke="#343771" stroke-width="0.776422" stroke-miterlimit="10"/>
<path d="M32.9678 42.282V42.1748" stroke="#343771" stroke-width="0.776422" stroke-miterlimit="10"/>
<path d="M32.9678 41.9613V8.69629" stroke="#343771" stroke-width="0.776422" stroke-miterlimit="10" stroke-dasharray="0.78 0.78"/>
<path d="M32.9678 8.59059V8.4834H33.076" stroke="#343771" stroke-width="0.776422" stroke-miterlimit="10"/>
<path d="M33.2888 8.4834H49.7897" stroke="#343771" stroke-width="0.776422" stroke-miterlimit="10" stroke-dasharray="0.77 0.77"/>
<path d="M49.8962 8.4834H50.0045V8.59059" stroke="#343771" stroke-width="0.776422" stroke-miterlimit="10"/>
<path d="M50.0061 8.80371L50.2757 42.0687" stroke="#343771" stroke-width="0.776422" stroke-miterlimit="10" stroke-dasharray="0.78 0.78"/>
<path d="M50.2776 42.1748V42.282H50.3858" stroke="#343771" stroke-width="0.776422" stroke-miterlimit="10"/>
<path d="M50.5986 42.2822H67.0995" stroke="#343771" stroke-width="0.776422" stroke-miterlimit="10" stroke-dasharray="0.77 0.77"/>
<path d="M67.2058 42.2822H67.314" stroke="#343771" stroke-width="0.776422" stroke-miterlimit="10"/>
<path d="M67.3142 42.282V42.1748" stroke="#343771" stroke-width="0.776422" stroke-miterlimit="10"/>
<path d="M67.3142 41.9613V8.69629" stroke="#343771" stroke-width="0.776422" stroke-miterlimit="10" stroke-dasharray="0.78 0.78"/>
<path d="M67.3142 8.59059V8.4834H67.4206" stroke="#343771" stroke-width="0.776422" stroke-miterlimit="10"/>
<path d="M67.6372 8.4834H80.5104" stroke="#343771" stroke-width="0.776422" stroke-miterlimit="10" stroke-dasharray="0.78 0.78"/>
<path d="M80.6184 8.4834H80.7248" stroke="#343771" stroke-width="0.776422" stroke-miterlimit="10"/>
<path d="M6.33236 44.489L5.14575 43.3105L3.95915 44.489L5.14575 45.6675L6.33236 44.489Z" fill="#BFB7FB"/>
<path d="M8.95443 44.489L7.76782 43.3105L6.58122 44.489L7.76782 45.6675L8.95443 44.489Z" fill="#BFB7FB"/>
<path d="M70.8346 41.1433L69.6479 39.9648L68.4613 41.1433L69.6479 42.3218L70.8346 41.1433Z" fill="#F7F9FF"/>
<path d="M73.4566 41.1453L72.27 39.9668L71.0834 41.1453L72.27 42.3237L73.4566 41.1453Z" fill="#F7F9FF"/>
<path d="M8.56973 17.9141H0" stroke="#343771" stroke-width="0.776422" stroke-miterlimit="10" stroke-dasharray="0.78 0.78"/>
<path d="M79.3929 34.8008H70.2786V37.5491H79.3929V34.8008Z" stroke="#343771" stroke-width="0.776422" stroke-miterlimit="10" stroke-dasharray="0.78 0.78"/>
<path d="M60.9459 23.8497L58.9804 22.5566V22.4984C58.9946 21.9276 58.945 21.3515 58.8332 20.7825L58.8226 20.7244L60.5397 19.1176L59.0532 16.2672L56.7418 16.734L56.701 16.6917C56.2965 16.2742 55.8513 15.899 55.3759 15.5801L55.3262 15.5466L55.3972 13.207L52.3159 12.2363L51.0138 14.1883H50.9553C50.3788 14.1742 49.8005 14.2236 49.2275 14.3345L49.169 14.3451L47.5512 12.6398L44.681 14.1161L45.1511 16.4116L45.1085 16.4522C44.6863 16.8538 44.3103 17.296 43.9892 17.7682L43.9555 17.8175L41.5997 17.747L40.6223 20.8072L42.5878 22.1003V22.1584C42.5736 22.7292 42.6233 23.3053 42.735 23.8743L42.7457 23.9325L41.0285 25.5392L42.5151 28.3896L44.8265 27.9228L44.8673 27.9651C45.2717 28.3844 45.7187 28.7578 46.1941 29.075L46.2438 29.1084L46.1729 31.448L49.2541 32.4187L50.5562 30.4667H50.6147C51.1895 30.4808 51.7695 30.4315 52.3425 30.3205L52.401 30.3099L54.0188 32.0153L56.889 30.539L56.4189 28.2434L56.4615 28.2029C56.8837 27.8012 57.2598 27.359 57.5791 26.8869L57.6128 26.8376L59.9685 26.908L60.9459 23.8479V23.8497ZM56.7684 24.2513C56.2699 25.814 55.1861 27.0895 53.7155 27.8453C52.8214 28.3051 51.8511 28.5376 50.8719 28.5376C50.244 28.5376 49.6125 28.4407 48.9969 28.2469C45.7453 27.2216 43.9395 23.7598 44.9719 20.5306C46.0043 17.3013 49.4883 15.5079 52.7416 16.5332C54.3151 17.0282 55.5994 18.1047 56.3604 19.5651C57.1214 21.0238 57.2651 22.6869 56.7666 24.2496L56.7684 24.2513Z" fill="#BFB7FB"/>
<path d="M56.3747 19.5595C55.6119 18.0973 54.324 17.0191 52.7488 16.5223C52.1279 16.3268 51.4964 16.2334 50.8773 16.2334C48.2484 16.2334 45.8022 17.9088 44.9649 20.5285C43.9307 23.7648 45.7401 27.2336 48.9988 28.2607C50.574 28.7575 52.2521 28.6131 53.7245 27.8573C55.1968 27.0998 56.2824 25.8207 56.7827 24.2563C57.2829 22.6919 57.1392 21.0235 56.3764 19.5631L56.3747 19.5595ZM55.2429 23.911C54.8651 25.0949 54.0455 26.0603 52.9351 26.6311C52.261 26.9782 51.5266 27.1544 50.7886 27.1544C50.3132 27.1544 49.8343 27.0821 49.3678 26.9342C46.9091 26.159 45.5432 23.5411 46.3237 21.0993C46.7016 19.9154 47.5211 18.95 48.6316 18.3792C49.742 17.8084 51.0086 17.7009 52.2007 18.0762C53.3927 18.4514 54.3648 19.2653 54.9396 20.3682C55.5143 21.471 55.6225 22.7289 55.2447 23.9128L55.2429 23.911Z" fill="#745EF6"/>
<path d="M69.2195 5.98266C68.7015 5.56161 68.0488 5.36605 67.3853 5.43124C66.0105 5.56689 65.0047 6.78777 65.1413 8.15311C65.2779 9.51669 66.5055 10.5174 67.882 10.3817C68.5472 10.3165 69.1468 9.99588 69.5708 9.48146C69.9947 8.96703 70.1916 8.32048 70.126 7.65983C70.0604 6.99918 69.7375 6.40371 69.2195 5.98266ZM68.9339 8.98641C68.6412 9.34228 68.2261 9.5625 67.7649 9.6083C67.7064 9.61359 67.6496 9.61711 67.5911 9.61711C66.713 9.61711 65.9573 8.95294 65.8686 8.06679C65.8225 7.6105 65.9591 7.16126 66.2518 6.80715C66.5445 6.45128 66.9596 6.23106 67.4208 6.18526C68.3698 6.08836 69.2213 6.78248 69.3153 7.72677C69.3614 8.18482 69.2249 8.6323 68.9322 8.98641H68.9339Z" fill="#9797FB"/>
<path d="M70.8977 9.85622L70.3922 9.13391L70.4152 9.0793C70.5004 8.88022 70.5642 8.67234 70.6033 8.46269L70.6139 8.40455L71.4388 8.08039L71.327 6.95993L70.4543 6.8049L70.4312 6.75029C70.3514 6.55297 70.2485 6.36271 70.1243 6.18301L70.0906 6.13368L70.4436 5.32505L69.5673 4.61155L68.84 5.11364L68.785 5.09074C68.5846 5.00617 68.3752 4.94275 68.1642 4.90399L68.1056 4.89342L67.7792 4.07422L66.651 4.18521L66.4949 5.05198L66.4399 5.07488C66.2412 5.15416 66.0497 5.2581 65.8687 5.37966L65.8191 5.41313L65.0048 5.06255L64.2864 5.93284L64.792 6.65692L64.7689 6.71153C64.6838 6.91061 64.6199 7.11849 64.5809 7.32814L64.5702 7.38627L63.7454 7.71043L63.8571 8.83089L64.7299 8.98592L64.7529 9.04054C64.8328 9.23785 64.9357 9.42812 65.0598 9.60781L65.0935 9.65714L64.7405 10.4658L65.6168 11.1793L66.3441 10.6772L66.3991 10.7001C66.5996 10.7847 66.8089 10.8481 67.02 10.8868L67.0785 10.8974L67.4049 11.7166L68.5331 11.6056L68.6892 10.7388L68.7442 10.7159C68.9429 10.6367 69.1345 10.5345 69.3154 10.4112L69.3651 10.3777L70.1793 10.7283L70.8977 9.85798V9.85622ZM69.5105 9.43164C69.099 9.93021 68.5172 10.2403 67.8732 10.3037C67.7916 10.3125 67.7118 10.316 67.6302 10.316C66.3991 10.316 65.3401 9.38584 65.2159 8.14382C65.0829 6.82076 66.0585 5.63687 67.3907 5.50474C68.0347 5.44132 68.6662 5.63159 69.17 6.03855C69.672 6.44727 69.9842 7.02512 70.048 7.66463C70.1119 8.30413 69.9203 8.93131 69.5105 9.43164Z" fill="#5B36F2"/>
<path d="M17.3523 6.55071C17.4481 6.62823 17.5403 6.71103 17.6308 6.79912C17.7195 6.8872 17.8029 6.98057 17.8809 7.07571L19.5289 5.43906L19.0003 4.91406L17.3523 6.55071Z" fill="#BFB7FB"/>
<path d="M19.5271 5.44043L17.8792 7.07708C17.9253 7.13345 17.9661 7.19335 18.0086 7.25149L19.6797 5.59194L19.5271 5.44043Z" fill="#343771"/>
<path d="M17.3524 6.55085L19.0003 4.9142L18.8478 4.7627L17.1768 6.42225C17.2353 6.46453 17.2956 6.50505 17.3524 6.55085Z" fill="#343771"/>
<path d="M21.8344 1.59324L18.8967 4.51074L19.9353 5.54221L22.873 2.6247L21.8344 1.59324Z" fill="#745EF6"/>
<path d="M18.9985 4.91587L19.5271 5.44087L19.6797 5.59238L19.9351 5.84607L23.1761 2.62562L21.8332 1.29199L18.5923 4.51244L18.8477 4.76613L19.0003 4.91764L18.9985 4.91587ZM21.8332 1.59325L22.8709 2.62386L19.9334 5.54129L18.8956 4.51067L21.8332 1.59325Z" fill="#343771"/>
<path d="M17.4764 6.95101C16.8183 6.29741 15.9526 5.96973 15.0869 5.96973C14.2213 5.96973 13.3556 6.29741 12.6975 6.95101C11.3795 8.25998 11.3795 10.3899 12.6975 11.6989C14.0155 13.0078 16.1602 13.0078 17.4782 11.6989C18.7962 10.3899 18.7962 8.25998 17.4782 6.95101H17.4764ZM15.0869 12.06C14.3508 12.06 13.6607 11.7764 13.141 11.2584C12.6212 10.7423 12.3338 10.0552 12.3338 9.32406C12.3338 8.59294 12.6194 7.90763 13.141 7.38968C13.6607 6.87349 14.3525 6.58809 15.0869 6.58809C15.8213 6.58809 16.5132 6.87173 17.0347 7.38968C17.5544 7.90587 17.8418 8.59294 17.8418 9.32406C17.8418 10.0552 17.5562 10.7405 17.0347 11.2584C16.5149 11.7746 15.8231 12.06 15.0869 12.06Z" fill="#FF7886"/>
<path d="M17.8791 7.07536C17.8011 6.98023 17.7177 6.88862 17.629 6.79877C17.5403 6.71068 17.4463 6.62788 17.3505 6.55037C17.2937 6.50456 17.2334 6.46404 17.1749 6.42176C15.7717 5.42462 13.8045 5.54794 12.5432 6.79877C11.1418 8.19054 11.1418 10.4561 12.5432 11.8479C13.2439 12.5438 14.1646 12.8926 15.0852 12.8926C16.0059 12.8926 16.9265 12.5438 17.6272 11.8479C18.8867 10.5971 19.0109 8.6433 18.0068 7.24801C17.9643 7.18987 17.9235 7.12998 17.8774 7.0736L17.8791 7.07536ZM12.6976 11.6981C11.3795 10.3892 11.3795 8.25925 12.6976 6.95028C13.3574 6.29668 14.2213 5.969 15.087 5.969C15.9527 5.969 16.8183 6.29668 17.4765 6.95028C18.7945 8.25925 18.7945 10.3892 17.4765 11.6981C16.1584 13.0071 14.0138 13.0071 12.6958 11.6981H12.6976Z" fill="#343771"/>
<path d="M17.0348 7.39143C16.5151 6.87524 15.8233 6.58984 15.0871 6.58984C14.3509 6.58984 13.6609 6.87348 13.1411 7.39143C12.6214 7.90762 12.334 8.59469 12.334 9.32581C12.334 10.0569 12.6196 10.7422 13.1411 11.2602C13.6609 11.7764 14.3527 12.0618 15.0871 12.0618C15.8215 12.0618 16.5133 11.7781 17.0348 11.2602C17.5546 10.744 17.842 10.0569 17.842 9.32581C17.842 8.59469 17.5564 7.90938 17.0348 7.39143ZM13.2919 11.1069C12.8129 10.6313 12.5486 9.99703 12.5486 9.32405C12.5486 8.65107 12.8129 8.01685 13.2919 7.54118C13.7708 7.06551 14.4095 6.80301 15.0871 6.80301C15.7647 6.80301 16.4033 7.06551 16.8823 7.54118C17.3612 8.01685 17.6255 8.65107 17.6255 9.32405C17.6255 9.99703 17.3612 10.6313 16.8823 11.1069C16.4033 11.5826 15.7647 11.8451 15.0871 11.8451C14.4095 11.8451 13.7726 11.5826 13.2919 11.1069Z" fill="#343771"/>
<path d="M13.9696 31.8085L13.0011 30.4256L13.0241 30.3709C13.1873 29.9869 13.3097 29.5887 13.386 29.1871L13.3966 29.1289L14.9736 28.5106L14.7466 26.2503L13.0773 25.9525L13.0543 25.8979C12.8999 25.5191 12.7013 25.1527 12.4653 24.8074L12.4316 24.7581L13.1057 23.213L11.3354 21.7737L9.94285 22.7356L9.88786 22.7127C9.50115 22.5506 9.10025 22.4291 8.6958 22.3533L8.63726 22.3427L8.01284 20.7783L5.73693 21.0038L5.43714 22.6598L5.38214 22.6828C5.00075 22.836 4.63178 23.0333 4.2841 23.2676L4.23443 23.3011L2.67872 22.6317L1.22944 24.3899L2.19621 25.7728L2.17315 25.8274C2.00995 26.2115 1.88933 26.6097 1.81128 27.0113L1.80063 27.0695L0.223633 27.6878L0.450692 29.9481L2.11816 30.2459L2.14122 30.3005C2.29555 30.6792 2.49423 31.0457 2.73016 31.391L2.76386 31.4403L2.08978 32.9854L3.86014 34.4247L5.25265 33.4645L5.30764 33.4874C5.69435 33.6495 6.09525 33.7711 6.4997 33.8468L6.55824 33.8574L7.18088 35.4236L9.4568 35.1981L9.75659 33.5421L9.81158 33.5192C10.193 33.3659 10.5619 33.1686 10.9096 32.9343L10.9593 32.9008L12.515 33.5702L13.9643 31.812L13.9696 31.8085ZM8.12283 32.5573C7.97204 32.5731 7.82126 32.5802 7.67048 32.5802C6.63629 32.5802 5.64291 32.2278 4.83046 31.5672C3.90093 30.8114 3.32264 29.742 3.20379 28.5581C3.08494 27.3742 3.43795 26.2133 4.20072 25.2884C4.96173 24.3652 6.03849 23.7909 7.23055 23.6728C8.42616 23.5548 9.59339 23.9072 10.5229 24.6629C11.4524 25.4187 12.0307 26.4881 12.1496 27.672C12.3944 30.1208 10.5886 32.3124 8.12283 32.5555V32.5573Z" fill="#745EF6"/>
<path d="M12.1673 27.6697C12.0484 26.4806 11.4684 25.4077 10.5353 24.6484C9.72107 23.9859 8.72236 23.6318 7.68463 23.6318C7.53384 23.6318 7.38306 23.6389 7.23051 23.6547C6.03312 23.7728 4.95281 24.3489 4.18826 25.2755C3.42371 26.2022 3.06893 27.3685 3.18778 28.5559C3.43435 31.0153 5.64818 32.8105 8.12455 32.5709C10.6009 32.326 12.4139 30.1273 12.1673 27.668V27.6697ZM7.92588 31.3271C7.81589 31.3377 7.70769 31.3429 7.59948 31.3429C5.94265 31.3429 4.51821 30.0903 4.35146 28.4202C4.26454 27.557 4.52175 26.7131 5.07521 26.0436C5.62867 25.3724 6.41096 24.9567 7.28018 24.8703C9.07182 24.6924 10.6772 25.9978 10.8546 27.7772C11.0338 29.5583 9.71929 31.1509 7.92765 31.3271H7.92588Z" fill="#BFB7FB"/>
<path d="M12.4441 28.6602L12.7208 31.0244H18.8709L19.1477 28.6602H12.4441Z" fill="#9797FB"/>
<path d="M17.8473 38.174L18.2518 34.8584H13.3398L13.7443 38.174H17.8473Z" fill="#9797FB"/>
<path d="M19.4208 28.7977V28.0049H19.1619H12.4299H12.1709V28.7977H19.4208Z" fill="#5B36F2"/>
<path d="M18.9472 27.3936H12.6445V28.1423H18.9472V27.3936Z" fill="#5B36F2"/>
<path d="M18.9348 30.8867H12.657L13.12 34.9968H18.4718L18.9348 30.8867Z" fill="#FF7886"/>
<path d="M53.7258 35.6649L49.0195 40.3389L49.3808 40.6976L54.0871 36.0236L53.7258 35.6649Z" fill="#5B36F2"/>
<path d="M54.238 36.1727L49.5317 40.8467L49.829 41.1419L54.5353 36.4679L54.238 36.1727Z" fill="#745EF6"/>
<path d="M53.2138 35.1561L48.5076 39.8301L48.8688 40.1888L53.5751 35.5149L53.2138 35.1561Z" fill="#745EF6"/>
<path d="M47.3224 41.458L47.1113 42.0834L47.7411 41.8738L47.3224 41.458Z" fill="#343771"/>
<path d="M47.9699 41.7983L49.6302 41.2486L47.9521 39.582L47.3987 41.231L47.9699 41.7983Z" fill="#FF7886"/>
<path d="M52.7627 34.7088L48.0564 39.3828L48.3537 39.6781L53.06 35.0041L52.7627 34.7088Z" fill="#5B36F2"/>
<path d="M55.1489 35.8623L54.2619 34.9815L53.375 34.1006L52.9155 34.5569L54.6894 36.3186L55.1489 35.8623Z" fill="#FF7886"/>
<path d="M55.2926 35.7045C55.4416 35.4984 55.7219 34.9311 55.0176 34.2317C54.3099 33.5288 53.7422 33.8089 53.5347 33.9586L55.2926 35.7045Z" fill="#9797FB"/>
<path d="M55.1702 34.0798C54.3294 33.2447 53.618 33.6323 53.3821 33.8067L53.375 33.7996L53.2987 33.8754L53.2224 33.9511L52.6104 34.5589L47.828 39.3086L47.8103 39.3262L46.7708 42.4215L49.8875 41.3892L55.4522 35.8626L55.4451 35.8556C55.619 35.6213 56.0092 34.9148 55.1702 34.0798ZM55.0176 34.2313C55.7219 34.9307 55.4416 35.4962 55.2926 35.7041L53.5346 33.9582C53.7422 33.8102 54.3098 33.5283 55.0176 34.2313ZM52.9156 34.5572L53.375 34.1009L54.2619 34.9818L55.1489 35.8626L54.6895 36.3189L52.9156 34.5572ZM53.5737 35.5138L48.8675 40.1877L48.5074 39.83L53.2136 35.1562L53.5737 35.5138ZM53.7262 35.6653L54.0863 36.0229L49.3802 40.6968L49.0201 40.3392L53.7262 35.6653ZM49.5327 40.8483L54.2389 36.1744L54.5369 36.4704L49.8307 41.1443L49.5327 40.8483ZM53.061 35.0047L48.3548 39.6785L48.0568 39.3826L52.763 34.7087L53.061 35.0047ZM49.6303 41.2482L47.9699 41.7979L47.3987 41.2306L47.9522 39.5816L49.6321 41.25L49.6303 41.2482ZM47.3224 41.4579L47.7411 41.8737L47.1113 42.0815L47.3207 41.4561L47.3224 41.4579Z" fill="#343771"/>
<path d="M35.6163 42.2823C35.6163 37.2807 35.6163 38.5527 35.6163 38.5527H30.4951V33.6357H28.3611L30.7931 28.3805C30.7931 28.3805 30.7931 20.8262 39.6289 20.8262C47.9929 20.8262 47.7374 32.0255 43.7266 34.1449V42.1977" fill="#FF7886"/>
<path d="M38.405 31.9924C38.8627 31.9836 39.2352 31.596 39.2352 31.1257V23.7211C39.2352 23.7211 39.2387 23.3406 38.9655 23.064C38.7615 22.8578 38.4547 22.7539 38.0538 22.7539C37.5642 22.7539 37.2236 23.0164 37.1402 23.4533C37.1207 23.5537 37.1189 23.663 37.1331 23.7739L36.9326 23.8832C36.922 23.8215 36.9149 23.7599 36.9131 23.6982C36.734 23.6295 36.4324 23.6665 36.2142 23.8444C35.9978 24.0224 35.9233 24.2954 35.996 24.6231C36.0226 24.7218 36.1912 25.2908 36.5885 25.4405L36.5122 25.6414C36.1858 25.5181 35.9925 25.1992 35.886 24.9561C35.4337 25.1481 35.1197 25.5832 35.0257 26.1681C34.9636 26.5522 35.0044 26.9468 35.1215 27.2587C35.1605 27.3485 35.3219 27.6674 35.6217 27.7555C35.8435 27.8206 36.1042 27.7484 36.3934 27.537L36.5211 27.7097C36.2621 27.8982 36.0155 27.9933 35.7867 27.9933C35.7087 27.9933 35.6324 27.9827 35.5596 27.9598C35.5188 27.9475 35.4816 27.9299 35.4443 27.9123L35.4355 27.9175C35.2989 28.0003 35.0789 28.2294 35.0683 28.4919C35.0612 28.661 35.141 28.8284 35.3024 28.9904L35.2882 28.9869C35.4355 29.1437 35.8115 29.4185 36.5176 29.1966L36.5832 29.4009C36.3739 29.4679 36.1876 29.4943 36.0226 29.4943C35.8222 29.4943 35.659 29.452 35.5224 29.3956C35.4745 29.6335 35.4302 30.0862 35.6874 30.4192C35.8843 30.6747 36.2213 30.8033 36.6896 30.8033H36.7978V30.9107C36.7978 31.1292 36.8635 31.2965 36.9947 31.4075C37.1952 31.5784 37.4968 31.5908 37.6546 31.5837C37.6511 31.5132 37.6599 31.441 37.6759 31.3688L37.8746 31.471C37.8622 31.5608 37.871 31.6507 37.9012 31.7282C37.9686 31.8991 38.1407 31.9924 38.3819 31.9924L38.405 32.0981V31.9907V31.9924ZM37.4063 30.1056L37.3868 29.8924C37.4187 29.8889 38.1602 29.8096 38.4298 28.9164L38.6356 28.9781C38.3216 30.014 37.4418 30.1021 37.4045 30.1056H37.4063ZM38.3677 26.8711L38.1637 26.9398C37.9154 26.2087 37.1916 26.3619 37.1615 26.369L37.1136 26.1611C37.1225 26.1576 38.0573 25.962 38.3677 26.8711Z" fill="#5B36F2"/>
<path d="M38.0537 22.5389C37.3459 22.5389 37.0089 22.9899 36.9273 23.4127C36.9237 23.4338 36.9238 23.455 36.9202 23.4761C36.6577 23.4056 36.3153 23.4814 36.0758 23.6787C35.9073 23.8161 35.6696 24.1209 35.7849 24.6547H35.7814C35.7814 24.6547 35.7885 24.6811 35.7973 24.7111C35.8009 24.7252 35.8026 24.7375 35.8062 24.7516C35.2811 24.9718 34.921 25.4686 34.8128 26.1328C34.7454 26.5468 34.7862 26.9679 34.9104 27.3114C34.9104 27.3167 34.9175 27.3273 34.9246 27.3449C34.9955 27.5316 35.0913 27.6955 35.2102 27.817C35.0541 27.9491 34.8642 28.1852 34.8536 28.483C34.8465 28.6662 34.9086 28.8423 35.0345 29.0097C35.0541 29.0397 35.1321 29.1489 35.2847 29.2599C35.2989 29.2704 35.3113 29.2828 35.3255 29.2934C35.2687 29.5435 35.1889 30.1178 35.5188 30.5459C35.7423 30.8366 36.1024 30.9917 36.5885 31.011C36.608 31.2453 36.6985 31.4303 36.8563 31.566C37.0834 31.7598 37.3992 31.7968 37.5996 31.7968C37.6386 31.7968 37.6723 31.7968 37.7007 31.7932C37.7007 31.7968 37.7025 31.8003 37.7043 31.8038C37.8054 32.0575 38.0537 32.2037 38.3854 32.2037H38.4103C38.985 32.1932 39.4516 31.7087 39.4516 31.122V23.721C39.4516 23.7016 39.4587 23.2559 39.1234 22.9141C38.8786 22.664 38.5185 22.5371 38.0555 22.5371L38.0537 22.5389ZM38.4067 32.0998L38.3837 31.9941C38.1424 31.9941 37.9721 31.9007 37.9029 31.7298C37.871 31.6523 37.8639 31.5625 37.8763 31.4726L37.6777 31.3704C37.6617 31.4427 37.6546 31.5149 37.6564 31.5854C37.4985 31.5924 37.1969 31.5801 36.9965 31.4092C36.8652 31.2964 36.7996 31.1308 36.7996 30.9124V30.8049H36.6914C36.2231 30.8049 35.886 30.6763 35.6891 30.4209C35.4319 30.0879 35.4762 29.6351 35.5241 29.3973C35.6607 29.4537 35.8239 29.4959 36.0244 29.4959C36.1876 29.4959 36.3738 29.4695 36.5849 29.4026L36.5193 29.1982C35.8133 29.4202 35.4372 29.1471 35.29 28.9886L35.3042 28.9921C35.1428 28.83 35.0647 28.6644 35.07 28.4935C35.0807 28.231 35.3006 28.002 35.4372 27.9192L35.4461 27.9139C35.4833 27.9315 35.5188 27.9491 35.5614 27.9615C35.6359 27.9826 35.7104 27.995 35.7885 27.995C36.0173 27.995 36.2639 27.8998 36.5228 27.7113L36.3951 27.5387C36.106 27.7501 35.8452 27.8223 35.6235 27.7571C35.3237 27.669 35.164 27.3502 35.1232 27.2603C35.0062 26.9485 34.9654 26.5521 35.0274 26.1698C35.1232 25.5849 35.4354 25.1498 35.8878 24.9577C35.9942 25.2008 36.1876 25.5197 36.514 25.643L36.5903 25.4422C36.1929 25.2925 36.0244 24.7234 35.9978 24.6248C35.9233 24.2971 35.9978 24.024 36.216 23.8461C36.4324 23.6681 36.7357 23.6311 36.9149 23.6999C36.9167 23.7615 36.9238 23.8232 36.9344 23.8848L37.1348 23.7756C37.1207 23.6646 37.1224 23.5554 37.1419 23.455C37.2253 23.0163 37.5677 22.7556 38.0555 22.7556C38.4564 22.7556 38.7633 22.8595 38.9673 23.0656C39.2405 23.3422 39.2369 23.7175 39.2369 23.7228V31.1273C39.2369 31.5977 38.8644 31.987 38.4067 31.9941V32.1016H38.4085L38.4067 32.0998Z" fill="#343771"/>
<path d="M38.6355 28.9777L38.4298 28.916C38.1584 29.8092 37.4169 29.8903 37.3867 29.892L37.4062 30.1052C37.4435 30.1017 38.3233 30.0136 38.6373 28.9777H38.6355Z" fill="#343771"/>
<path d="M38.1637 26.9397L38.3677 26.871C38.0572 25.9602 37.1242 26.1575 37.1135 26.161L37.1614 26.3689C37.1916 26.3618 37.9153 26.2086 38.1637 26.9397Z" fill="#343771"/>
<path d="M43.8738 27.8201C43.9926 27.6986 44.0866 27.5347 44.1594 27.348C44.1665 27.3304 44.1718 27.318 44.1736 27.3145C44.2977 26.971 44.3385 26.5499 44.2711 26.1359C44.1629 25.4735 43.8028 24.9749 43.2777 24.7547C43.2813 24.7406 43.2831 24.7301 43.2866 24.716C43.2955 24.6843 43.3008 24.6614 43.3026 24.6578H43.299C43.4143 24.1223 43.1766 23.8192 43.0081 23.6818C42.7686 23.4845 42.4263 23.4105 42.1637 23.4792C42.1602 23.4581 42.1602 23.4352 42.1566 23.4158C42.0768 22.993 41.738 22.542 41.0302 22.542C40.5672 22.542 40.2071 22.6688 39.9623 22.919C39.6253 23.2608 39.6324 23.7065 39.6341 23.7241V31.1287C39.6341 31.7136 40.1007 32.1998 40.6754 32.2086H40.7003C41.032 32.2086 41.2786 32.0624 41.3814 31.8087C41.3814 31.8052 41.3832 31.8017 41.385 31.7981C41.4134 31.7999 41.4471 31.8017 41.4861 31.8017C41.6865 31.8017 42.0005 31.7664 42.2294 31.5709C42.3872 31.437 42.4759 31.2502 42.4972 31.0159C42.9833 30.9965 43.3434 30.8397 43.5669 30.5508C43.8968 30.1227 43.817 29.5484 43.7602 29.2982C43.7744 29.2877 43.7869 29.2753 43.801 29.2648C43.9518 29.1538 44.0317 29.0445 44.0494 29.0146C44.1771 28.8472 44.2374 28.6711 44.2303 28.4878C44.2179 28.1901 44.0299 27.9558 43.8738 27.8219V27.8201ZM40.7003 32.0994L40.679 31.9919C40.2213 31.9831 39.8488 31.5955 39.8488 31.1251V23.7188C39.8488 23.7188 39.8435 23.3453 40.1166 23.067C40.3206 22.8591 40.6275 22.7552 41.0302 22.7552C41.5198 22.7552 41.8604 23.0177 41.9438 23.4563C42.0254 23.8862 41.816 24.4605 41.2679 24.6737L41.346 24.8728C41.8941 24.6578 42.1531 24.1645 42.1708 23.7012C42.35 23.6325 42.6516 23.6695 42.8697 23.8474C43.0862 24.0254 43.1607 24.2984 43.0879 24.6279C43.0613 24.7283 42.8928 25.2938 42.4954 25.4453L42.5717 25.6444C42.8964 25.5211 43.0915 25.2022 43.1979 24.9591C43.6503 25.1511 43.9642 25.5863 44.0583 26.1712C44.1203 26.5552 44.0795 26.9516 43.9625 27.2634C43.9217 27.355 43.7638 27.6704 43.464 27.7585C43.2423 27.8254 42.9815 27.7514 42.6906 27.54L42.5629 27.7127C42.8218 27.9012 43.0684 27.9963 43.2973 27.9963C43.3753 27.9963 43.4516 27.9857 43.5243 27.9628C43.5651 27.9505 43.6024 27.9329 43.6396 27.9153L43.6485 27.9206C43.7851 28.0034 44.005 28.2324 44.0157 28.4949C44.0228 28.664 43.943 28.8314 43.7815 28.9935L43.7939 28.9899C43.6449 29.1467 43.2671 29.4198 42.5664 29.1978L42.5008 29.4022C42.7101 29.4691 42.8964 29.4955 43.0613 29.4955C43.2618 29.4955 43.425 29.4533 43.5598 29.3969C43.6077 29.6347 43.652 30.0875 43.3948 30.4205C43.1979 30.6759 42.8609 30.8045 42.3926 30.8045H42.2844V30.912C42.2844 31.1304 42.2187 31.2978 42.0875 31.4088C41.8888 31.5797 41.5854 31.592 41.4258 31.5867C41.4382 31.3401 41.3282 31.0723 41.1242 30.882L40.977 31.0371C41.1792 31.2273 41.2644 31.518 41.1792 31.7312C41.11 31.9021 40.9397 31.9954 40.6985 31.9954V32.1029L40.7003 32.0994Z" fill="#343771"/>
<path d="M40.7003 31.9922C40.9415 31.9922 41.1118 31.8989 41.181 31.728C41.2662 31.5148 41.181 31.2241 40.9788 31.0339L41.126 30.8788C41.33 31.0709 41.4382 31.3369 41.4276 31.5835C41.5855 31.5906 41.8888 31.5765 42.0893 31.4056C42.2188 31.2946 42.2862 31.1272 42.2862 30.9088V30.8013H42.3944C42.8627 30.8013 43.1997 30.6727 43.3966 30.4172C43.6538 30.0843 43.6095 29.6315 43.5616 29.3937C43.425 29.4501 43.2618 29.4923 43.0631 29.4923C42.8999 29.4923 42.7137 29.4659 42.5026 29.399L42.5682 29.1946C43.2689 29.4148 43.6467 29.1418 43.7958 28.9867L43.7833 28.9902C43.9448 28.8282 44.0228 28.6608 44.0175 28.4917C44.0068 28.2292 43.7869 28.0002 43.6503 27.9174L43.6414 27.9121C43.6042 27.9297 43.5687 27.9473 43.5261 27.9596C43.4516 27.9808 43.3771 27.9931 43.2991 27.9931C43.0702 27.9931 42.8237 27.898 42.5647 27.7095L42.6924 27.5368C42.9833 27.7482 43.2441 27.8222 43.4658 27.7553C43.7656 27.6654 43.9235 27.3501 43.9643 27.2602C44.0814 26.9484 44.1222 26.552 44.0601 26.168C43.9643 25.5831 43.6521 25.1479 43.1997 24.9559C43.0933 25.1972 42.8999 25.5179 42.5735 25.6412L42.4973 25.4421C42.8946 25.2906 43.0631 24.7251 43.0897 24.6247C43.1642 24.2952 43.0897 24.0222 42.8716 23.8442C42.6551 23.6663 42.3536 23.6293 42.1726 23.698C42.1549 24.1613 41.8959 24.6564 41.3478 24.8696L41.2697 24.6705C41.8179 24.4555 42.0272 23.883 41.9456 23.4531C41.8622 23.0145 41.5198 22.752 41.032 22.752C40.6293 22.752 40.3225 22.8577 40.1185 23.0638C39.8453 23.3421 39.8506 23.7121 39.8506 23.7156V31.1219C39.8506 31.5923 40.2231 31.9817 40.6808 31.9887L40.7021 32.0962V31.9887L40.7003 31.9922ZM41.9704 26.1609L41.9225 26.3688C41.8924 26.3617 41.1668 26.212 40.9203 26.9396L40.7163 26.8709C41.0267 25.9601 41.9598 26.1574 41.9704 26.1609ZM40.6542 28.9163C40.9256 29.8095 41.6671 29.8905 41.6972 29.8923L41.6777 30.1054C41.6405 30.1019 40.7624 30.0138 40.4466 28.9779L40.6524 28.9163H40.6542Z" fill="#5B36F2"/>
<path d="M41.6778 30.1052L41.6973 29.892C41.6654 29.8885 40.9239 29.8092 40.6543 28.916L40.4485 28.9777C40.7625 30.0136 41.6423 30.1017 41.6796 30.1052H41.6778Z" fill="#343771"/>
<path d="M40.7163 26.8706L40.9203 26.9393C41.1669 26.2135 41.8924 26.3615 41.9226 26.3685L41.9705 26.1607C41.9616 26.1571 41.0267 25.9616 40.7163 26.8706Z" fill="#343771"/>
<path d="M30.3124 18.9462C30.3124 16.0763 27.9602 13.7402 25.0705 13.7402C22.1808 13.7402 19.8286 16.0763 19.8286 18.9462C19.8286 21.816 22.1808 24.1521 25.0705 24.1521C27.9602 24.1521 30.3124 21.816 30.3124 18.9462ZM29.7075 18.9955V19.1029H28.9465V18.9955V18.888H29.7075V18.9955ZM29.0316 16.5995L29.0848 16.6911L29.1381 16.7845L28.4782 17.1633L28.37 16.9783L29.0298 16.5995H29.0316ZM24.9623 14.3903H25.0705H25.1787V15.1461H25.0705H24.9623V14.3903ZM25.0669 18.7946L27.3109 16.4815L27.4653 16.6295L25.0705 19.0977L23.0553 17.1474L23.2061 16.9942L25.0669 18.7946ZM22.8442 14.9541L23.2256 15.6094L23.0394 15.7169L22.658 15.0615L22.8442 14.9541ZM20.4335 18.9955V18.888H21.1945V18.9955V19.1029H20.4335V18.9955ZM21.1076 21.3897L20.9994 21.2047L21.6593 20.8259L21.7675 21.0109L21.1076 21.3897ZM21.6593 17.1633L20.9994 16.7845L21.0526 16.6911L21.1058 16.5995L21.7657 16.9783L21.6575 17.1633H21.6593ZM22.8442 23.0369L22.658 22.9294L23.0394 22.2741L23.2256 22.3815L22.8442 23.0369ZM25.1769 23.6006H25.0687H24.9605V22.8449H25.0687H25.1769V23.6006ZM27.295 23.0369L26.9136 22.3815L27.0998 22.2741L27.4812 22.9294L27.295 23.0369ZM27.0998 15.7151L26.9136 15.6077L27.295 14.9523L27.4812 15.0598L27.0998 15.7151ZM28.4799 20.8277L29.1398 21.2065L29.0316 21.3914L28.3717 21.0127L28.4799 20.8277Z" fill="#9797FB"/>
<path d="M25.1768 15.1464V14.3906H25.0704H24.9622V15.1464H25.0704H25.1768Z" fill="#343771"/>
<path d="M24.9622 22.8428V23.6003H25.0704H25.1768V22.8428H25.0704H24.9622Z" fill="#343771"/>
<path d="M28.9446 18.8877V18.9949V19.1003H29.7074V18.9949V18.8877H28.9446Z" fill="#343771"/>
<path d="M21.1946 19.1003V18.9949V18.8877H20.4336V18.9949V19.1003H21.1946Z" fill="#343771"/>
<path d="M29.1399 16.7846L29.0867 16.693L29.0317 16.5996L28.3718 16.9784L28.48 17.1634L29.1399 16.7846Z" fill="#343771"/>
<path d="M21.6614 20.8252L21.0015 21.2041L21.1087 21.3883L21.7687 21.0094L21.6614 20.8252Z" fill="#343771"/>
<path d="M27.2945 14.9505L26.9128 15.6064L27.0987 15.7131L27.4803 15.0572L27.2945 14.9505Z" fill="#343771"/>
<path d="M23.0392 22.2777L22.6575 22.9336L22.8433 23.0403L23.225 22.3844L23.0392 22.2777Z" fill="#343771"/>
<path d="M22.8429 14.9549L22.657 15.0615L23.0384 15.7176L23.2243 15.611L22.8429 14.9549Z" fill="#343771"/>
<path d="M27.1012 22.2753L26.9153 22.3818L27.2967 23.0379L27.4826 22.9313L27.1012 22.2753Z" fill="#343771"/>
<path d="M21.0544 16.693L21.0012 16.7846L21.6593 17.1634L21.7675 16.9784L21.1077 16.5996L21.0544 16.693Z" fill="#343771"/>
<path d="M28.4787 20.8265L28.3716 21.0107L29.0318 21.3893L29.1389 21.205L28.4787 20.8265Z" fill="#343771"/>
<path d="M23.0571 17.1474L25.0723 19.0976L27.4671 16.6294L27.311 16.4814L25.067 18.7946L23.2079 16.9941L23.0571 17.1474Z" fill="#343771"/>
<path d="M0.528809 7.45762C0.528809 10.0209 3.89036 12.3306 3.89036 12.3306C3.89036 12.3306 7.2519 9.94871 7.2519 7.45762C7.2519 5.61309 5.74586 4.11914 3.89036 4.11914C2.03485 4.11914 0.528809 5.61309 0.528809 7.45762Z" fill="#FF7886"/>
<path d="M3.89207 12.4349L3.8424 12.4014C3.70404 12.3063 0.443604 10.0372 0.443604 7.45801C0.443604 5.56943 1.99045 4.0332 3.89207 4.0332C5.7937 4.0332 7.34054 5.56943 7.34054 7.45801C7.34054 9.96319 4.08011 12.3028 3.94174 12.3997L3.89207 12.4349ZM3.8903 4.20409C2.08446 4.20409 0.613898 5.66457 0.613898 7.45801C0.613898 9.77821 3.4752 11.9275 3.8903 12.2253C4.30362 11.9187 7.1667 9.71303 7.1667 7.45801C7.1667 5.66457 5.69613 4.20409 3.8903 4.20409Z" fill="#343771"/>
<path d="M23.2647 44.9337C22.3352 44.4087 21.7054 43.4168 21.7054 42.2823C21.7054 41.1477 22.3352 40.1559 23.2647 39.6309C21.6859 39.9762 20.1089 40.8588 18.5408 42.2823C20.1089 43.7057 21.6859 44.5901 23.2647 44.9337Z" fill="#9797FB"/>
<path d="M26.2927 39.6309C27.2222 40.1559 27.852 41.1477 27.852 42.2823C27.852 43.4168 27.2222 44.4087 26.2927 44.9337C27.8715 44.5884 29.4485 43.7057 31.0166 42.2823C29.4485 40.8588 27.8715 39.9744 26.2927 39.6309Z" fill="#9797FB"/>
<path d="M31.3342 42.282L31.2491 42.2045C29.2109 40.3282 27.1602 39.3452 25.1078 39.25C24.9996 39.2377 24.8897 39.2324 24.7797 39.2324C24.6697 39.2324 24.5597 39.2395 24.4515 39.25C22.3991 39.3452 20.3485 40.3282 18.3102 42.2045L18.2251 42.282L18.3102 42.3595C20.3485 44.2357 22.3991 45.2188 24.4497 45.3139C24.5579 45.3263 24.6679 45.3315 24.7797 45.3315C24.8914 45.3315 25.0014 45.3245 25.1096 45.3139C27.1603 45.2188 29.2127 44.234 31.2491 42.3595L31.3342 42.282ZM21.9219 42.282C21.9219 40.7176 23.2044 39.4438 24.7797 39.4438C26.3549 39.4438 27.6374 40.7176 27.6374 42.282C27.6374 43.8464 26.3549 45.1201 24.7797 45.1201C23.2044 45.1201 21.9219 43.8464 21.9219 42.282ZM21.7073 42.282C21.7073 43.4183 22.337 44.4084 23.2665 44.9334C21.6878 44.5881 20.1108 43.7055 18.5426 42.282C20.1108 40.8585 21.6878 39.9741 23.2665 39.6306C22.337 40.1556 21.7073 41.1474 21.7073 42.282ZM27.8521 42.282C27.8521 41.1457 27.2223 40.1556 26.2928 39.6306C27.8716 39.9759 29.4486 40.8585 31.0167 42.282C29.4486 43.7055 27.8716 44.5898 26.2928 44.9334C27.2223 44.4084 27.8521 43.4165 27.8521 42.282Z" fill="#343771"/>
<path d="M27.6357 42.2825C27.6357 40.7181 26.3531 39.4443 24.7779 39.4443C23.2027 39.4443 21.9202 40.7181 21.9202 42.2825C21.9202 43.8469 23.2027 45.1206 24.7779 45.1206C26.3531 45.1206 27.6357 43.8469 27.6357 42.2825ZM22.8994 42.2825C22.8994 41.2536 23.7437 40.4151 24.7797 40.4151C25.8157 40.4151 26.66 41.2536 26.66 42.2825C26.66 43.3113 25.8157 44.1499 24.7797 44.1499C23.7437 44.1499 22.8994 43.3113 22.8994 42.2825Z" fill="#745EF6"/>
<path d="M23.114 42.2822C23.114 43.1948 23.8608 43.9365 24.7797 43.9365C25.6986 43.9365 26.4454 43.1948 26.4454 42.2822C26.4454 41.3696 25.6986 40.6279 24.7797 40.6279C23.8608 40.6279 23.114 41.3696 23.114 42.2822Z" fill="#BFB7FB"/>
<path d="M26.6601 42.2825C26.6601 41.2536 25.8157 40.415 24.7798 40.415C23.7438 40.415 22.8994 41.2536 22.8994 42.2825C22.8994 43.3113 23.7438 44.1499 24.7798 44.1499C25.8157 44.1499 26.6601 43.3113 26.6601 42.2825ZM26.4437 42.2825C26.4437 43.1951 25.6969 43.9367 24.778 43.9367C23.8591 43.9367 23.1123 43.1951 23.1123 42.2825C23.1123 41.3699 23.8591 40.6282 24.778 40.6282C25.6969 40.6282 26.4437 41.3699 26.4437 42.2825Z" fill="#343771"/>
<path d="M69.1838 24.1519L68.5275 24.5271L67.8836 23.4172L67.6991 23.3115H67.6228V24.6575H69.1838V24.1519Z" fill="#745EF6"/>
<path d="M70.9597 23.1338L70.0657 23.6447L69.3987 24.0287V24.6577H70.9597V23.1338Z" fill="#745EF6"/>
<path d="M71.6036 22.764L71.1743 23.0106V24.6578H72.7353V22.2812H72.4462L71.6036 22.764Z" fill="#745EF6"/>
<path d="M74.511 22.2812H72.95V24.6596H74.511V22.2812Z" fill="#745EF6"/>
<path d="M76.2866 22.2812H74.7256V24.6596H76.2866V22.2812Z" fill="#745EF6"/>
<path d="M74.7256 22.0661H72.8187L73.1415 21.8812L74.6795 20.9985L76.4037 20.0102L74.9917 17.5808L73.4537 18.4634L71.9157 19.346L71.1122 19.8058L71.5024 19.1364L72.3911 17.609L73.2799 16.0815L70.8337 14.6792L69.8385 16.3916L68.9515 17.919L68.6766 18.3912V14.2793H65.8525V23.3099H67.41V24.8708H76.5031V22.0661H74.7274H74.7256ZM76.2866 24.6577H74.7256V22.2793H76.2866V24.6577ZM74.511 24.6577H72.9499V22.2793H74.511V24.6577ZM72.7353 24.6577H71.1742V23.0104L71.6035 22.7638L72.4461 22.2811H72.7335V24.6594L72.7353 24.6577ZM67.6229 23.3117H67.6992L67.8819 23.4174L68.5276 24.5273L69.1822 24.152V24.6594H67.6211V23.3135L67.6229 23.3117ZM66.0654 14.4942H68.4602V16.0446H66.0654V14.4942ZM66.0654 16.2577H68.4602V17.808H66.0654V16.2577ZM66.0654 18.0212H68.4602V19.5715H66.0654V18.0212ZM72.9836 16.1591L72.2031 17.5015L70.1294 16.3123L70.9099 14.9699L72.9836 16.1591ZM71.0589 17.0928L72.0949 17.6865L71.3144 19.0289L69.2407 17.8398L70.0212 16.4973L71.0572 17.091L71.0589 17.0928ZM70.172 18.6202L71.208 19.2139L70.4274 20.5563L68.673 19.5504V18.8175L69.1343 18.0247L70.1702 18.6184L70.172 18.6202ZM72.0239 19.531L73.3757 18.7559L73.9735 19.7847L74.5713 20.8136L73.2196 21.5887L72.0222 19.5293L72.0239 19.531ZM73.5619 18.6484L74.9136 17.8732L76.111 19.9327L74.7593 20.7079L73.5619 18.6484ZM72.4355 20.6673L73.0333 21.6962L71.6816 22.4713L70.6226 20.648L70.8975 20.1758L71.8377 19.6367L72.4355 20.6656V20.6673ZM68.6748 21.8336L69.4341 22.2687L68.6535 23.6112L68.1302 23.3117H68.6748V21.8336ZM68.6748 19.797L69.285 20.1459L70.321 20.7396L69.5405 22.082L68.6748 21.5852V19.7953V19.797ZM68.7316 23.9036L69.4748 22.6264L69.9591 23.4614L68.6074 24.2366L68.2562 23.6323L68.7316 23.9054V23.9036ZM69.7267 22.1912L70.4984 20.8629L70.8975 21.55L71.4953 22.5788L70.1436 23.354L69.5972 22.4132L69.7267 22.1912ZM66.0654 19.7847H68.4602V21.335H66.0654V19.7847ZM66.0654 21.5482H68.4602V23.0985H66.0654V21.5482ZM69.3986 24.0287L70.0656 23.6464L70.9578 23.1338V24.6577H69.3968V24.027L69.3986 24.0287Z" fill="#343771"/>
<path d="M69.9591 23.4593L69.4731 22.626L68.7316 23.9032L68.2544 23.6302L68.6074 24.2344L69.9591 23.4593Z" fill="#745EF6"/>
<path d="M71.497 22.5792L70.8974 21.5486L70.4983 20.8633L69.7267 22.1916L69.5972 22.4136L70.1453 23.3544L71.497 22.5792Z" fill="#745EF6"/>
<path d="M70.6226 20.6481L71.6834 22.4715L73.0351 21.6964L72.4355 20.6675L71.8377 19.6387L70.8975 20.176L70.6226 20.6481Z" fill="#745EF6"/>
<path d="M74.5713 20.8153L73.9734 19.7847L73.3756 18.7559L72.0239 19.531L73.2213 21.5905L74.5713 20.8153Z" fill="#745EF6"/>
<path d="M74.9139 17.8733L73.562 18.6484L74.7594 20.7081L76.1113 19.933L74.9139 17.8733Z" fill="#745EF6"/>
<path d="M68.6519 23.6116L69.4324 22.2691L68.675 21.834V23.3121H68.1304L68.6519 23.6116Z" fill="#9797FB"/>
<path d="M68.6748 21.548V21.5868L69.5405 22.0836L70.321 20.7412L69.2833 20.1475L68.6748 19.7969V21.3349V21.548Z" fill="#9797FB"/>
<path d="M68.6748 19.5501L70.4274 20.556L71.2079 19.2136L70.172 18.6199L69.1342 18.0244L68.6748 18.819V19.5501Z" fill="#9797FB"/>
<path d="M69.2424 17.8415L71.3161 19.0289L72.0966 17.6864L71.0589 17.0927L70.0229 16.499L69.2424 17.8415Z" fill="#9797FB"/>
<path d="M70.9128 14.9738L70.1323 16.3164L72.2063 17.5056L72.9868 16.163L70.9128 14.9738Z" fill="#9797FB"/>
<path d="M68.4602 21.5479H66.0654V23.0982H68.4602V21.5479Z" fill="#745EF6"/>
<path d="M68.4602 19.7852H66.0654V21.3355H68.4602V19.7852Z" fill="#745EF6"/>
<path d="M68.4602 18.0215H66.0654V19.5718H68.4602V18.0215Z" fill="#745EF6"/>
<path d="M68.4602 16.2578H66.0654V17.8081H68.4602V16.2578Z" fill="#745EF6"/>
<path d="M68.4602 14.4941H66.0654V16.0445H68.4602V14.4941Z" fill="#745EF6"/>
<path d="M68.2615 26.3747H69.411L66.5373 20.0977L63.6636 26.3747H64.8131L65.3559 25.0622H67.7169L68.2598 26.3747H68.2615ZM65.7355 24.1496L66.5391 22.21L67.3426 24.1496H65.7373H65.7355Z" fill="#FF7886"/>
<path d="M69.5778 26.4826H68.1888L67.646 25.1701H65.4286L64.8858 26.4826H63.4968L66.5373 19.8408L69.5778 26.4826ZM68.3343 26.2676H69.2443L66.5391 20.3552L63.8339 26.2676H64.7439L65.2867 24.9551H67.7932L68.336 26.2676H68.3343ZM67.5023 24.2557H65.5758L66.5391 21.9267L67.5023 24.2557ZM65.8951 24.0426H67.1794L66.5373 22.4905L65.8951 24.0426Z" fill="#343771"/>
<path d="M41.4701 16.1539V15.1973H37.2163V16.1539H37.3068H41.1952H41.4701Z" fill="#5B36F2"/>
<path d="M41.4701 13.9883H37.2163V14.9837H41.4701V13.9883Z" fill="#5B36F2"/>
<path d="M42.9142 4.80123C42.0662 4.02079 40.7624 3.60326 39.3468 3.65963C37.9171 3.6015 36.6203 4.02079 35.7724 4.80123C34.7702 5.72262 34.3373 7.06154 34.6158 8.38107C34.795 9.23551 35.313 9.90145 35.8593 10.6061C36.5263 11.4659 37.2164 12.3538 37.2164 13.5993V13.7755H38.5929C38.6249 13.3333 38.7419 11.4588 38.5113 9.95254C37.2483 9.73584 36.9397 8.98887 36.8705 8.73342C36.764 8.33879 36.8758 7.95473 37.1436 7.80146C37.2607 7.73452 37.5783 7.62353 37.9987 8.04106C38.3535 8.3934 38.5699 9.03291 38.6994 9.76403C38.8714 9.78693 39.0595 9.79927 39.2635 9.79927C39.4675 9.79927 39.6537 9.78693 39.8276 9.76403C39.9553 9.03291 40.1735 8.3934 40.5283 8.04106C40.9469 7.62353 41.2662 7.73452 41.3833 7.80146C41.6511 7.95473 41.7629 8.33703 41.6565 8.73342C41.5873 8.98887 41.2786 9.73584 40.0156 9.95254C39.7832 11.4588 39.9003 13.3315 39.934 13.7755H41.4755V13.5993C41.4755 12.3538 42.1656 11.4659 42.8326 10.6061C43.3789 9.90145 43.8969 9.23551 44.0761 8.38107C44.3546 7.06154 43.9217 5.72262 42.9195 4.80123H42.9142Z" fill="#FF7886"/>
<path d="M39.7123 13.7737C39.6769 13.298 39.5616 11.4957 39.7886 9.98242C39.6272 10 39.4516 10.0106 39.2618 10.0106C39.072 10.0106 38.8964 10 38.7332 9.98242C38.9584 11.4957 38.8449 13.298 38.8094 13.7737H39.7123Z" fill="#FF7886"/>
<path d="M41.2716 7.98621C41.2273 7.96155 41.1794 7.94922 41.1279 7.94922C40.9931 7.94922 40.8352 8.03202 40.6756 8.19058C40.3651 8.49888 40.1682 9.06616 40.0476 9.72504C40.9009 9.55239 41.3284 9.10315 41.4419 8.67858C41.5217 8.38084 41.449 8.09016 41.2698 7.98798L41.2716 7.98621Z" fill="#FF7886"/>
<path d="M37.3922 7.94805C37.3407 7.94805 37.2928 7.96038 37.2485 7.98505C37.0693 8.08899 36.9966 8.37968 37.0764 8.67565C37.1917 9.10199 37.6192 9.55123 38.4707 9.72211C38.3501 9.06323 38.1532 8.49771 37.8427 8.18765C37.6831 8.02909 37.5252 7.94629 37.3904 7.94629L37.3922 7.94805Z" fill="#FF7886"/>
<path d="M43.0597 4.64453C42.1692 3.82532 40.8157 3.38841 39.3469 3.44655C37.8745 3.39017 36.5157 3.82532 35.6252 4.64453C34.568 5.617 34.1103 7.03167 34.4048 8.4252C34.5946 9.32721 35.1516 10.0442 35.6891 10.7366C36.3632 11.6051 37 12.4261 37 13.5976V16.3653H37.3512C37.4364 16.6278 37.8125 17.373 39.3433 17.373C40.8742 17.373 41.1243 16.6437 41.1811 16.3653H41.6849V13.5976C41.6849 12.4261 42.3217 11.6051 42.9958 10.7366C43.5333 10.0442 44.0903 9.32721 44.2801 8.4252C44.5746 7.03167 44.1169 5.617 43.0597 4.64453ZM44.0708 8.38116C43.8916 9.2356 43.3736 9.90153 42.8273 10.6062C42.1603 11.466 41.4702 12.3539 41.4702 13.5994V13.7756H39.9287C39.8968 13.3334 39.7797 11.4589 40.0103 9.95262C41.2733 9.73593 41.582 8.98896 41.6512 8.7335C41.7576 8.33888 41.6459 7.95482 41.378 7.80155C41.2609 7.7346 40.9434 7.62361 40.523 8.04114C40.1682 8.39349 39.9518 9.033 39.8223 9.76412C39.6502 9.78702 39.4622 9.79935 39.2582 9.79935C39.0542 9.79935 38.8662 9.78702 38.6941 9.76412C38.5646 9.033 38.3482 8.39349 37.9934 8.04114C37.5747 7.62538 37.2554 7.7346 37.1384 7.80155C36.8705 7.95482 36.7588 8.33712 36.8652 8.7335C36.9344 8.98896 37.243 9.73593 38.506 9.95262C38.7384 11.4589 38.6214 13.3316 38.5876 13.7756H37.2111V13.5994C37.2111 12.3539 36.521 11.466 35.8541 10.6062C35.3077 9.90153 34.7897 9.2356 34.6106 8.38116C34.3321 7.06162 34.7649 5.72271 35.7671 4.80132C36.6151 4.02087 37.9136 3.60158 39.3416 3.65972C40.7571 3.60334 42.0592 4.02087 42.9089 4.80132C43.9111 5.72271 44.3422 7.06162 44.0655 8.38116H44.0708ZM41.4702 14.9841H37.2164V13.9887H41.4702V14.9841ZM37.5801 16.3671H40.9629C40.9008 16.6067 40.6205 17.1616 39.3433 17.1616C38.0661 17.1616 37.6901 16.619 37.5801 16.3671ZM37.3069 16.1539H37.2164V15.1991H41.4702V16.1539H37.3069ZM38.7331 9.98257C38.8945 10.0002 39.0701 10.0108 39.2617 10.0108C39.4533 10.0108 39.6272 10.0002 39.7886 9.98257C39.5633 11.4959 39.6768 13.2982 39.7123 13.7738H38.8094C38.8449 13.2982 38.9602 11.4959 38.7331 9.98257ZM40.0493 9.7236C40.17 9.06471 40.3669 8.4992 40.6773 8.18913C40.837 8.03057 40.9948 7.94777 41.1297 7.94777C41.1811 7.94777 41.229 7.9601 41.2733 7.98477C41.4525 8.08871 41.5252 8.3794 41.4454 8.67537C41.3301 9.10171 40.9026 9.55095 40.0511 9.72184L40.0493 9.7236ZM38.4723 9.7236C37.6191 9.55095 37.1916 9.10171 37.0781 8.67713C36.9982 8.3794 37.071 8.08871 37.2501 7.98653C37.2945 7.96187 37.3424 7.94953 37.3938 7.94953C37.5286 7.94953 37.6865 8.03234 37.8462 8.19089C38.1566 8.4992 38.3535 9.06471 38.4741 9.72536L38.4723 9.7236Z" fill="#343771"/>
<path d="M40.9629 16.3672H37.5801C37.6883 16.6191 38.0714 17.1617 39.3433 17.1617C40.6152 17.1617 40.9008 16.6068 40.9629 16.3672Z" fill="#5B36F2"/>
<path d="M67.4209 30.9307V34.5581H67.6799V35.2874H66.9472V34.5581H67.2062V30.9307L65.5139 35.8124L66.4523 36.7461H68.1765L69.1149 35.8124L67.4209 30.9307Z" fill="#9797FB"/>
<path d="M67.3144 29.9658L65.2673 35.8711L66.2643 36.8612L65.2833 38.0839V39.2942H69.3473V38.0839L68.3663 36.8612L69.3633 35.8711L67.3162 29.9658H67.3144ZM65.4979 39.0793V38.2266H69.1309V39.0793H65.4979ZM65.6132 38.0134L66.4594 36.9599H68.1694L69.0156 38.0134H65.6132ZM68.1765 36.7467H66.4523L65.5139 35.8148L67.2062 30.933V34.5604H66.9472V35.288H67.6798V34.5604H67.4209V30.933L69.1132 35.8148L68.1748 36.7467H68.1765ZM67.1619 35.0731V34.7718H67.4652V35.0731H67.1619Z" fill="#343771"/>
<path d="M67.4652 34.7734H67.1619V35.0739H67.4652V34.7734Z" fill="#FF7886"/>
<path d="M62.9152 32.5674H62.6118V32.8679H62.9152V32.5674Z" fill="#FF7886"/>
<path d="M62.9152 28.8203H62.6118V29.1208H62.9152V28.8203Z" fill="#FF7886"/>
<path d="M67.4652 28.8203H67.1619V29.1208H67.4652V28.8203Z" fill="#FF7886"/>
<path d="M72.017 32.5674H71.7136V32.8679H72.017V32.5674Z" fill="#FF7886"/>
<path d="M72.017 28.8203H71.7136V29.1208H72.017V28.8203Z" fill="#FF7886"/>
<path d="M72.2317 29.335V28.6074H71.499V28.8646H67.6816V28.6074H66.949V28.8646H63.1315V28.6074H62.3989V29.335H63.1315V29.0778H65.6452C63.3994 29.7067 62.8389 31.5654 62.7023 32.3546H62.3989V33.0822H63.1315V32.3546H62.9134C63.0624 31.4597 63.7542 29.2452 66.949 29.0866V29.335H67.6816V29.0866C70.8764 29.2452 71.5682 31.4597 71.7172 32.3546H71.499V33.0822H72.2317V32.3546H71.9283C71.7917 31.5654 71.2294 29.7067 68.9854 29.0778H71.499V29.335H72.2317ZM62.9134 32.8691H62.61V32.5678H62.9134V32.8691ZM72.017 32.8691H71.7137V32.5678H72.017V32.8691ZM72.017 28.8206V29.1218H71.7137V28.8206H72.017ZM67.1619 29.1201V28.8188H67.4652V29.1201H67.1619ZM62.6118 29.1201V28.8188H62.9151V29.1201H62.6118Z" fill="#343771"/>
<path d="M66.4594 36.96L65.6133 38.0135H69.0139L68.1677 36.96H66.4594Z" fill="#9797FB"/>
<path d="M69.1308 38.2285H65.4978V39.0812H69.1308V38.2285Z" fill="#745EF6"/>
<path d="M80.5842 9.40448C81.0952 8.00188 80.3645 6.45348 78.9522 5.94602C77.5399 5.43856 75.9808 6.16422 75.4699 7.56681C74.9589 8.96941 75.6896 10.5178 77.1019 11.0253C78.5141 11.5327 80.0732 10.8071 80.5842 9.40448Z" fill="#FF7886"/>
<path d="M78.0254 11.26C76.4839 11.26 75.2297 10.0145 75.2297 8.48352C75.2297 6.95258 76.4839 5.70703 78.0254 5.70703C79.5669 5.70703 80.8211 6.95258 80.8211 8.48352C80.8211 10.0145 79.5669 11.26 78.0254 11.26ZM78.0254 5.85678C76.5673 5.85678 75.3805 7.03538 75.3805 8.48352C75.3805 9.93166 76.5673 11.1103 78.0254 11.1103C79.4836 11.1103 80.6703 9.93166 80.6703 8.48352C80.6703 7.03538 79.4836 5.85678 78.0254 5.85678Z" fill="#343771"/>
<path d="M77.4366 9.62385L76.5479 8.74122L76.7004 8.58971L77.4366 9.32083L79.3506 7.41992L79.5032 7.57143L77.4366 9.62385Z" fill="#343771"/>
</g>
<defs>
<clipPath id="clip0_1823_50972">
<rect width="81" height="46.125" fill="white" transform="translate(0 0.9375)"/>
</clipPath>
</defs>
</svg>
