<svg width="96" height="96" viewBox="0 0 96 96" fill="none" xmlns="http://www.w3.org/2000/svg">
<rect width="96" height="96" rx="8" fill="#ECF4F9"/>
<path d="M0 80.3999H96V87.9999C96 92.4182 92.4183 95.9999 88 95.9999H8C3.58172 95.9999 0 92.4182 0 87.9999V80.3999Z" fill="#FFB59A"/>
<rect x="15.5273" y="50.9866" width="5.87" height="23.4962" transform="rotate(-15 15.5273 50.9866)" fill="#A8CBE2"/>
<path fill-rule="evenodd" clip-rule="evenodd" d="M33.7452 80.3994H13.2002C13.2007 74.7265 17.7997 70.1279 23.4727 70.1279C29.1457 70.1279 33.7447 74.7265 33.7452 80.3994Z" fill="#6F63EC"/>
<rect x="30.917" y="29.0386" width="5.87" height="23.4962" transform="rotate(38.6583 30.917 29.0386)" fill="#A8CBE2"/>
<path d="M28.3994 28.1011L34.7401 21.6001L39.2075 26.0031L50.2397 27.8765L34.66 43.3761L32.7226 32.6961L28.3994 28.1011Z" fill="#745EF6"/>
<ellipse cx="17.7067" cy="49.5824" rx="4.4025" ry="4.4025" fill="#6F63EC"/>
<circle cx="17.7065" cy="49.5827" r="2.41157" fill="#5B36F2"/>
<path fill-rule="evenodd" clip-rule="evenodd" d="M33.7452 80.3994H13.2002C13.2007 74.7265 17.7997 70.1279 23.4727 70.1279C29.1457 70.1279 33.7447 74.7265 33.7452 80.3994Z" fill="#5446E0"/>
<rect x="62.335" y="38.9653" width="4.19788" height="40.8515" rx="2" transform="rotate(-9.37316 62.335 38.9653)" fill="#745EF6"/>
<rect x="71.9673" y="40.4768" width="4.19788" height="36.7089" rx="2" transform="rotate(2.91615 71.9673 40.4768)" fill="#07B0AD"/>
<rect x="79.7158" y="45.3984" width="4.19788" height="25.843" rx="2" transform="rotate(19.9374 79.7158 45.3984)" fill="#1A055D"/>
<rect x="63.9995" y="58.7761" width="18.2612" height="21.6421" fill="#FC4A61"/>
<rect x="72.3047" y="58.7761" width="9.95588" height="21.6421" fill="#FC4A61"/>
<path d="M69.5487 31.9805C70.401 31.4589 70.401 30.2374 69.5487 29.7159C68.8486 29.2875 68.081 28.9585 67.2657 28.7486C67.0558 27.9333 66.7269 27.1657 66.2983 26.4657C65.7767 25.6133 64.5552 25.6133 64.0337 26.4657C63.6051 27.1657 63.2763 27.9333 63.0663 28.7488C62.2509 28.9587 61.4834 29.2877 60.7833 29.716C59.931 30.2376 59.931 31.4591 60.7833 31.9807C61.4834 32.4092 62.2509 32.7382 63.0663 32.9481C63.2761 33.7634 63.6051 34.531 64.0337 35.2311C64.5552 36.0834 65.7767 36.0834 66.2983 35.2311C66.7269 34.5308 67.0558 33.7632 67.2657 32.9479C68.081 32.738 68.8486 32.4091 69.5487 31.9805Z" fill="#FF8D4C"/>
<path d="M65.123 25.827C64.7017 25.8405 64.2859 26.0534 64.0337 26.4655C63.6051 27.1656 63.2763 27.9332 63.0663 28.7487C62.2509 28.9585 61.4834 29.2875 60.7833 29.7159C59.931 30.2375 59.931 31.459 60.7833 31.9806C61.4834 32.4091 62.2509 32.7381 63.0663 32.9479C63.2761 33.7633 63.6051 34.5308 64.0337 35.2309C64.2863 35.6438 64.7033 35.8567 65.1253 35.8696C64.2859 33.0944 64.2859 28.6211 65.123 25.827Z" fill="#FABD00"/>
<path d="M86.5664 20.7488C86.956 20.5104 86.956 19.952 86.5664 19.7136C86.2463 19.5178 85.8954 19.3674 85.5227 19.2714C85.4268 18.8987 85.2764 18.5478 85.0805 18.2278C84.842 17.8381 84.2836 17.8381 84.0452 18.2278C83.8493 18.5478 83.699 18.8987 83.603 19.2715C83.2302 19.3674 82.8794 19.5178 82.5593 19.7137C82.1697 19.9521 82.1697 20.5105 82.5593 20.7489C82.8794 20.9448 83.2302 21.0952 83.603 21.1912C83.6989 21.5639 83.8493 21.9148 84.0452 22.2348C84.2836 22.6244 84.842 22.6244 85.0805 22.2348C85.2764 21.9147 85.4268 21.5638 85.5227 21.1911C85.8954 21.0951 86.2463 20.9448 86.5664 20.7488Z" fill="#FF8D4C"/>
<path d="M84.5432 17.9356C84.3506 17.9418 84.1605 18.0391 84.0452 18.2275C83.8493 18.5475 83.699 18.8984 83.603 19.2712C83.2302 19.3672 82.8794 19.5175 82.5593 19.7134C82.1697 19.9518 82.1697 20.5102 82.5593 20.7486C82.8794 20.9445 83.2302 21.0949 83.603 21.1909C83.6989 21.5636 83.8493 21.9145 84.0452 22.2345C84.1607 22.4233 84.3513 22.5206 84.5443 22.5265C84.1605 21.2578 84.1605 19.2129 84.5432 17.9356Z" fill="#FABD00"/>
<path d="M39.4526 6.91486C39.8422 6.67643 39.8422 6.11803 39.4526 5.87959C39.1325 5.68377 38.7817 5.53338 38.4089 5.43744C38.313 5.06472 38.1626 4.71383 37.9667 4.39379C37.7283 4.00415 37.1699 4.00415 36.9314 4.39379C36.7355 4.71383 36.5852 5.06472 36.4892 5.43752C36.1165 5.53346 35.7656 5.68385 35.4455 5.87967C35.0559 6.11811 35.0559 6.67651 35.4455 6.91494C35.7656 7.11085 36.1165 7.26124 36.4892 7.35718C36.5851 7.7299 36.7355 8.08079 36.9314 8.40083C37.1699 8.79046 37.7283 8.79046 37.9667 8.40083C38.1626 8.08071 38.313 7.72982 38.4089 7.3571C38.7817 7.26116 39.1325 7.11077 39.4526 6.91486Z" fill="#FF8D4C"/>
<path d="M37.4294 4.10159C37.2368 4.10779 37.0467 4.2051 36.9314 4.3935C36.7355 4.71354 36.5852 5.06443 36.4892 5.43723C36.1165 5.53317 35.7656 5.68356 35.4455 5.87939C35.0559 6.11783 35.0559 6.67622 35.4455 6.91466C35.7656 7.11056 36.1165 7.26096 36.4892 7.35689C36.5851 7.72961 36.7355 8.0805 36.9314 8.40054C37.0469 8.5893 37.2375 8.68662 37.4305 8.69249C37.0467 7.42383 37.0467 5.3789 37.4294 4.10159Z" fill="#FABD00"/>
<path d="M68.4907 14.8235C69.0486 14.4821 69.0486 13.6826 68.4907 13.3412C68.0325 13.0608 67.5301 12.8455 66.9964 12.7081C66.8591 12.1745 66.6437 11.6721 66.3632 11.2138C66.0218 10.6559 65.2223 10.6559 64.8809 11.2138C64.6004 11.6721 64.3852 12.1745 64.2477 12.7083C63.714 12.8456 63.2116 13.061 62.7534 13.3413C62.1955 13.6827 62.1955 14.4823 62.7534 14.8237C63.2116 15.1042 63.714 15.3195 64.2477 15.4569C64.3851 15.9905 64.6004 16.4929 64.8809 16.9512C65.2223 17.5091 66.0218 17.5091 66.3632 16.9512C66.6437 16.4928 66.8591 15.9904 66.9964 15.4567C67.5301 15.3194 68.0325 15.104 68.4907 14.8235Z" fill="#FF8D4C"/>
<path d="M65.5939 10.7957C65.3182 10.8046 65.046 10.9439 64.8809 11.2137C64.6004 11.6719 64.3852 12.1743 64.2477 12.7081C63.714 12.8455 63.2116 13.0608 62.7534 13.3412C62.1955 13.6826 62.1955 14.4821 62.7534 14.8235C63.2116 15.104 63.714 15.3193 64.2477 15.4567C64.3851 15.9904 64.6004 16.4928 64.8809 16.951C65.0463 17.2213 65.3192 17.3606 65.5955 17.369C65.046 15.5525 65.046 12.6246 65.5939 10.7957Z" fill="#FABD00"/>
<path d="M17.4434 18.972C18.0013 18.6306 18.0013 17.8311 17.4434 17.4897C16.9851 17.2093 16.4827 16.9939 15.9491 16.8566C15.8117 16.3229 15.5964 15.8205 15.3158 15.3623C14.9745 14.8044 14.1749 14.8044 13.8335 15.3623C13.553 15.8205 13.3378 16.3229 13.2003 16.8567C12.6667 16.9941 12.1642 17.2094 11.706 17.4898C11.1481 17.8312 11.1481 18.6307 11.706 18.9721C12.1642 19.2526 12.6667 19.4679 13.2003 19.6053C13.3377 20.139 13.553 20.6414 13.8335 21.0996C14.1749 21.6575 14.9745 21.6575 15.3158 21.0996C15.5964 20.6413 15.8117 20.1389 15.9491 19.6052C16.4827 19.4678 16.9851 19.2525 17.4434 18.972Z" fill="#FF8D4C"/>
<path d="M14.5465 14.9441C14.2708 14.953 13.9986 15.0923 13.8335 15.3621C13.553 15.8203 13.3378 16.3227 13.2003 16.8565C12.6667 16.9939 12.1642 17.2092 11.706 17.4896C11.1481 17.831 11.1481 18.6305 11.706 18.9719C12.1642 19.2524 12.6667 19.4678 13.2003 19.6051C13.3377 20.1388 13.553 20.6412 13.8335 21.0994C13.9989 21.3697 14.2718 21.5091 14.5481 21.5175C13.9986 19.701 13.9986 16.773 14.5465 14.9441Z" fill="#FABD00"/>
</svg>
